{
.appVersion = "3418";
.formatVersion = 3;
DisplayStrings = (
b,
"&"
);
customParameters = (
{
name = glyphOrder;
value = (
.notdef,
space,
exclam,
quotedbl,
numbersign,
dollar,
percent,
ampersand,
quoteright,
parenleft,
parenright,
asterisk,
comma,
hyphen,
period,
slash,
zero,
one,
two,
three,
four,
five,
six,
seven,
eight,
nine,
colon,
semicolon,
question,
at,
A,
B,
C,
D,
E,
F,
G,
H,
I,
J,
K,
L,
M,
N,
O,
P,
Q,
R,
S,
T,
U,
V,
W,
X,
Y,
Z,
bracketleft,
backslash,
bracketright,
underscore,
quoteleft,
a,
b,
c,
d,
e,
f,
g,
h,
i,
j,
k,
l,
m,
n,
o,
p,
q,
r,
s,
t,
u,
v,
w,
x,
y,
z,
braceleft,
braceright,
exclamdown,
cent,
sterling,
yen,
quotesingle,
quotedblleft,
guilsinglleft,
guilsinglright,
endash,
periodcentered,
bullet,
quotesinglbase,
quotedblbase,
quotedblright,
ellipsis,
questiondown,
emdash,
M.alt,
Q.alt,
S.alt,
V.alt,
W.alt,
a.alt,
e.alt,
g.alt,
k.alt,
s.alt,
w.alt,
y.alt,
k.alt2,
"a-bopomofo",
"ai-bopomofo",
"an-bopomofo",
"ang-bopomofo",
"au-bopomofo",
"b-bopomofo",
"c-bopomofo",
"ch-bopomofo",
"d-bopomofo",
"e-bopomofo",
"eh-bopomofo",
"ei-bopomofo",
"en-bopomofo",
"eng-bopomofo",
"er-bopomofo",
"f-bopomofo",
"g-bopomofo",
"h-bopomofo",
"i-bopomofo",
"iu-bopomofo",
"j-bopomofo",
"k-bopomofo",
"l-bopomofo",
"m-bopomofo",
"n-bopomofo",
"o-bopomofo",
"ou-bopomofo",
"p-bopomofo",
"q-bopomofo",
"r-bopomofo",
"s-bopomofo",
"sh-bopomofo",
"t-bopomofo",
"u-bopomofo",
"x-bopomofo",
"z-bopomofo",
"zh-bopomofo",
guillemetleft,
guillemetright,
period.alt,
comma.alt,
semicolon.alt,
euro,
plusminus,
y.ss01,
ampersand.ss01,
x.ss01,
s.ss01,
germandbls,
b.ss01,
d.ss01,
i.ss06,
f.ss01,
p.ss01,
q.ss01,
f_f.liga,
f_f_l.liga,
b.copy_1,
d.copy_1,
acute,
cedilla,
dieresis,
grave,
macron,
tilde
);
},
{
name = openTypeHeadFlags;
value = (
0,
1
);
},
{
name = openTypeHeadLowestRecPPEM;
value = 3;
},
{
name = preferredFamilyNames;
value = BoPoMoFont;
},
{
name = uniqueID;
value = "1.000;NONE;BoPoMoFont-Regular";
},
{
name = versionString;

glyphs = (
{
glyphname = .notdef;
lastChange = "2025-07-23 23:10:46 +0000";
layers = (
{
layerId = m001;
shapes = (
{
closed = 1;
nodes = (
(450,-200,l),
(450,800,l),
(50,800,l),
(50,-200,l)
);
},
{
closed = 1;
nodes = (
(100,750,l),
(400,750,l),
(400,-150,l),
(100,-150,l)
);
}
);
width = 500;
},
{
layerId = m01;
width = 600;
}
);
},
{
glyphname = exclam;
lastChange = "2025-07-23 23:10:46 +0000";
layers = (
{
layerId = m001;
shapes = (
{
closed = 1;
nodes = (
(199,208,l),
(199,728,l),
(83,728,l),
(83,208,l)
);
},
{
closed = 1;
nodes = (
(179,-10,o),
(210,21,o),
(210,59,cs),
(210,97,o),
(179,128,o),
(141,128,cs),
(103,128,o),
(72,97,o),
(72,59,cs),
(72,21,o),
(103,-10,o),
(141,-10,cs)
);
}
);
width = 282;
},
{
layerId = m01;
width = 600;
}
);
unicode = 33;
},
{
glyphname = quotedbl;
lastChange = "2025-07-23 23:10:46 +0000";
layers = (
{
layerId = m001;
shapes = (
{
closed = 1;
nodes = (
(282,476,l),
(357,476,l),
(383,720,l),
(255,720,l)
);
},
{
closed = 1;
nodes = (
(88,476,l),
(163,476,l),
(189,720,l),
(61,720,l)
);
}
);
width = 445;
},
{
layerId = m01;
width = 600;
}
);
unicode = 34;
},
{
glyphname = numbersign;
lastChange = "2025-07-23 23:10:46 +0000";
layers = (
{
layerId = m001;
shapes = (
{
closed = 1;
nodes = (
(317,208,l),
(422,208,l),
(392,0,l),
(493,-14,l),
(525,208,l),
(704,208,l),
(704,312,l),
(540,312,l),
(555,416,l),
(704,416,l),
(704,520,l),
(570,520,l),
(600,728,l),
(499,742,l),
(467,520,l),
(362,520,l),
(392,728,l),
(291,742,l),
(259,520,l),
(80,520,l),
(80,416,l),
(244,416,l),
(229,312,l),
(80,312,l),
(80,208,l),
(214,208,l),
(184,0,l),
(285,-14,l)
);
},
{
closed = 1;
nodes = (
(347,416,l),
(452,416,l),
(437,312,l),
(332,312,l)
);
}
);
width = 784;
},
{
layerId = m01;
width = 600;
}
);
unicode = 35;
},
{
glyphname = dollar;
lastChange = "2025-07-23 23:10:46 +0000";
layers = (
{
layerId = m001;
shapes = (
{
closed = 1;
nodes = (
(372,-104,l),
(372,39,l),
(384,39,ls),
(503,39,o),
(565,129,o),
(565,205,cs),
(565,300,o),
(503,372,o),
(384,372,cs),
(277,372,ls),
(214,372,o),
(191,410,o),
(191,443,cs),
(191,476,o),
(214,515,o),
(277,515,cs),
(515,515,l),
(515,610,l),
(372,610,l),
(372,752,l),
(277,752,l),
(277,610,l),
(267,610,ls),
(148,610,o),
(86,519,o),
(86,443,cs),
(86,357,o),
(148,277,o),
(267,277,cs),
(375,277,ls),
(437,277,o),
(461,248,o),
(461,205,cs),
(461,172,o),
(437,134,o),
(375,134,cs),
(134,134,l),
(134,39,l),
(277,39,l),
(277,-104,l)
);
}
);
width = 651;
},
{
layerId = m01;
width = 600;
}
);
unicode = 36;
},
{
glyphname = percent;
lastChange = "2025-07-23 23:10:46 +0000";
layers = (
{
layerId = m001;
shapes = (
{
closed = 1;
nodes = (
(624,700,o),
(542,619,o),
(542,511,cs),
(542,403,o),
(624,322,o),
(735,322,cs),
(846,322,o),
(929,403,o),
(929,511,cs),
(929,619,o),
(846,700,o),
(735,700,cs)
);
},
{
closed = 1;
nodes = (
(1158,688,l),
(716,-12,l),
(826,-12,l),
(1267,688,l)
);
},
{
closed = 1;
nodes = (
(790,608,o),
(831,568,o),
(831,511,cs),
(831,454,o),
(790,414,o),
(735,414,cs),
(681,414,o),
(640,454,o),
(640,511,cs),
(640,568,o),
(681,608,o),
(735,608,cs)
);
},
{
closed = 1;
nodes = (
(1137,354,o),
(1055,272,o),
(1055,165,cs),
(1055,56,o),
(1137,-25,o),
(1248,-25,cs),
(1359,-25,o),
(1442,56,o),
(1442,165,cs),
(1442,272,o),
(1359,354,o),
(1248,354,cs)
);
},
{
closed = 1;
nodes = (
(1303,261,o),
(1344,222,o),
(1344,165,cs),
(1344,107,o),
(1303,68,o),
(1248,68,cs),
(1194,68,o),
(1153,107,o),
(1153,165,cs),
(1153,222,o),
(1194,261,o),
(1248,261,cs)
);
}
);
width = 1983;
},
{
layerId = m01;
width = 600;
}
);
unicode = 37;
},
{
glyphname = ampersand;
lastChange = "2025-07-23 23:22:28 +0000";
layers = (
{
layerId = m001;
shapes = (
{
closed = 1;
nodes = (
(417,-10,o),
(506,72,o),
(506,189,c),
(591,189,l),
(591,285,l),
(400,285,l),
(400,189,ls),
(400,126,o),
(356,85,o),
(297,85,cs),
(237,85,o),
(194,125,o),
(194,186,cs),
(194,245,o),
(238,285,o),
(297,285,c),
(297,380,l),
(239,380,o),
(199,424,o),
(199,480,cs),
(199,538,o),
(239,579,o),
(297,579,c),
(297,674,l),
(179,674,o),
(94,597,o),
(94,480,cs),
(94,423,o),
(120,371,o),
(161,335,c),
(118,301,o),
(87,250,o),
(87,186,cs),
(87,79,o),
(178,-10,o),
(297,-10,cs)
);
},
{
closed = 1;
nodes = (
(500,480,l),
(500,597,o),
(415,674,o),
(297,674,c),
(297,579,l),
(355,579,o),
(395,538,o),
(395,480,c)
);
},
{
closed = 0;
nodes = (
(441,49,l),
(465,20,o),
(502,-1,o),
(546,-1,cs),
(559,-1,l),
(559,94,l),
(555,94,ls),
(526,94,o),
(507,114,o),
(507,142,cs),
(507,195,l),
(407,195,l),
(407,189,l)
);
}
);
width = 670;
},
{
layerId = m01;
width = 600;
}
);
unicode = 38;
},
{
glyphname = quoteright;
lastChange = "2025-07-23 23:10:46 +0000";
layers = (
{
layerId = m001;
shapes = (
{
closed = 1;
nodes = (
(99,570,o),
(81,549,o),
(53,549,cs),
(35,549,l),
(35,454,l),
(83,454,ls),
(162,454,o),
(215,510,o),
(215,593,cs),
(215,720,l),
(99,720,l),
(99,603,ls)
);
}
);
width = 270;
},
{
layerId = m01;
width = 600;
}
);
unicode = 8217;
},
{
glyphname = parenleft;
lastChange = "2025-07-23 23:10:46 +0000";
layers = (
{
layerId = m001;
shapes = (
{
closed = 1;
nodes = (
(309,-208,l),
(309,-113,l),
(250,-113,o),
(206,-69,o),
(206,-9,cs),
(206,640,ls),
(206,700,o),
(250,744,o),
(309,744,c),
(309,839,l),
(305,839,ls),
(195,839,o),
(100,748,o),
(100,639,cs),
(100,-9,ls),
(100,-126,o),
(195,-208,o),
(305,-208,cs)
);
}
);
width = 600;
},
{
layerId = m01;
width = 600;
}
);
unicode = 40;
},
{
glyphname = parenright;
lastChange = "2025-07-23 23:10:46 +0000";
layers = (
{
layerId = m001;
shapes = (
{
closed = 1;
nodes = (
(30,-208,ls),
(140,-208,o),
(235,-126,o),
(235,-9,cs),
(235,639,ls),
(235,763,o),
(140,839,o),
(30,839,cs),
(26,839,l),
(26,744,l),
(85,744,o),
(129,700,o),
(129,640,cs),
(129,-9,ls),
(129,-69,o),
(85,-113,o),
(26,-113,c),
(26,-208,l)
);
}
);
width = 335;
},
{
layerId = m01;
width = 600;
}
);
unicode = 41;
},
{
glyphname = asterisk;
lastChange = "2025-07-23 23:10:46 +0000";
layers = (
{
layerId = m001;
shapes = (
{
closed = 1;
nodes = (
(154,351,l),
(232,458,l),
(310,351,l),
(379,401,l),
(301,507,l),
(426,549,l),
(399,630,l),
(275,588,l),
(275,720,l),
(189,720,l),
(189,588,l),
(65,630,l),
(38,549,l),
(163,507,l),
(85,401,l)
);
}
);
width = 464;
},
{
layerId = m01;
width = 600;
}
);
unicode = 42;
},
{
glyphname = comma;
lastChange = "2025-07-23 23:10:46 +0000";
layers = (
{
layerId = m001;
shapes = (
{
closed = 1;
nodes = (
(115,-32,o),
(84,-66,o),
(55,-66,cs),
(35,-66,l),
(35,-148,l),
(86,-148,ls),
(172,-148,o),
(220,-98,o),
(220,-8,cs),
(220,129,l),
(115,129,l),
(115,3,ls)
);
}
);
width = 285;
},
{
layerId = m01;
width = 600;
}
);
unicode = 44;
},
{
glyphname = hyphen;
lastChange = "2025-07-23 23:10:46 +0000";
layers = (
{
layerId = m001;
shapes = (
{
closed = 1;
nodes = (
(392,208,l),
(392,312,l),
(80,312,l),
(80,208,l)
);
}
);
width = 472;
},
{
layerId = m01;
width = 600;
}
);
unicode = (45,173);
},
{
glyphname = period;
lastChange = "2025-07-23 23:10:46 +0000";
layers = (
{
layerId = m001;
shapes = (
{
closed = 1;
nodes = (
(75,33,o),
(67,52,o),
(67,75,cs),
(67,98,o),
(75,117,o),
(91,133,cs),
(106,149,o),
(125,157,o),
(148,157,cs),
(171,157,o),
(190,149,o),
(206,133,cs),
(222,117,o),
(230,98,o),
(230,75,cs),
(230,52,o),
(222,33,o),
(206,18,cs),
(190,2,o),
(171,-6,o),
(148,-6,cs),
(125,-6,o),
(106,2,o),
(91,18,c)
);
}
);
width = 296;
},
{
layerId = m01;
width = 600;
}
);
unicode = 46;
},
{
glyphname = slash;
lastChange = "2025-07-23 23:10:46 +0000";
layers = (
{
layerId = m001;
shapes = (
{
closed = 1;
nodes = (
(155,-10,l),
(387,738,l),
(272,738,l),
(40,-10,l)
);
}
);
width = 426;
},
{
layerId = m01;
width = 600;
}
);
unicode = 47;
},
{
glyphname = zero;
lastChange = "2025-07-23 23:10:46 +0000";
layers = (
{
layerId = m001;
shapes = (
{
closed = 1;
nodes = (
(460,-10,o),
(551,133,o),
(551,340,cs),
(551,548,o),
(460,691,o),
(300,691,cs),
(141,691,o),
(49,548,o),
(49,340,cs),
(49,133,o),
(141,-10,o),
(300,-10,cs)
);
},
{
closed = 1;
nodes = (
(200,88,o),
(156,192,o),
(156,340,cs),
(156,489,o),
(200,592,o),
(300,592,cs),
(401,592,o),
(444,489,o),
(444,340,cs),
(444,192,o),
(401,88,o),
(300,88,cs)
);
}
);
width = 601;
},
{
layerId = m01;
width = 600;
}
);
unicode = 48;
},
{
glyphname = one;
lastChange = "2025-07-23 23:10:46 +0000";
layers = (
{
layerId = m001;
shapes = (
{
closed = 1;
nodes = (
(381,95,l),
(381,681,l),
(281,681,l),
(273,607,o),
(245,578,o),
(187,578,cs),
(137,578,l),
(137,474,l),
(192,474,ls),
(224,474,o),
(263,479,o),
(275,496,c),
(275,95,l),
(113,95,l),
(113,0,l),
(544,0,l),
(544,95,l)
);
}
);
width = 659;
},
{
layerId = m01;
width = 600;
}
);
unicode = 49;
},
{
glyphname = two;
lastChange = "2025-07-23 23:10:46 +0000";
layers = (
{
layerId = m001;
shapes = (
{
closed = 1;
nodes = (
(492,0,l),
(492,99,l),
(191,99,l),
(191,100,l),
(282,165,ls),
(423,265,o),
(499,362,o),
(499,468,cs),
(499,609,o),
(400,691,o),
(266,691,cs),
(105,691,o),
(20,581,o),
(19,448,c),
(126,448,l),
(129,528,o),
(173,594,o),
(266,594,cs),
(333,594,o),
(392,548,o),
(392,468,cs),
(392,382,o),
(328,311,o),
(186,203,cs),
(36,89,l),
(36,0,l)
);
}
);
width = 529;
},
{
layerId = m01;
width = 600;
}
);
unicode = 50;
},
{
glyphname = three;
lastChange = "2025-07-23 23:10:46 +0000";
layers = (
{
layerId = m001;
shapes = (
{
closed = 1;
nodes = (
(417,-10,o),
(517,68,o),
(517,181,cs),
(517,291,o),
(444,340,o),
(392,354,c),
(392,356,l),
(430,370,o),
(491,418,o),
(491,510,cs),
(491,623,o),
(405,691,o),
(283,691,cs),
(120,691,o),
(62,571,o),
(59,491,c),
(168,491,l),
(175,544,o),
(206,594,o),
(282,594,cs),
(338,594,o),
(384,559,o),
(384,496,cs),
(384,430,o),
(332,399,o),
(259,399,cs),
(219,399,l),
(219,304,l),
(271,304,ls),
(344,304,o),
(410,269,o),
(410,194,cs),
(410,127,o),
(357,86,o),
(285,86,cs),
(217,86,o),
(164,126,o),
(152,194,c),
(38,194,l),
(45,84,o),
(132,-10,o),
(285,-10,cs)
);
}
);
width = 560;
},
{
layerId = m01;
width = 600;
}
);
unicode = 51;
},
{
glyphname = four;
lastChange = "2025-07-23 23:10:46 +0000";
layers = (
{
layerId = m001;
shapes = (
{
closed = 1;
nodes = (
(461,0,l),
(461,149,l),
(554,149,l),
(554,245,l),
(461,245,l),
(461,681,l),
(319,681,l),
(19,233,l),
(19,149,l),
(354,149,l),
(354,0,l)
);
},
{
closed = 1;
nodes = (
(131,246,l),
(141,254,o),
(156,274,o),
(169,294,cs),
(339,549,l),
(344,558,o),
(348,565,o),
(352,574,c),
(354,574,l),
(354,245,l),
(131,245,l)
);
}
);
width = 585;
},
{
layerId = m01;
width = 600;
}
);
unicode = 52;
},
{
glyphname = five;
lastChange = "2025-07-23 23:10:46 +0000";
layers = (
{
layerId = m001;
shapes = (
{
closed = 1;
nodes = (
(385,688,l),
(378,314,l),
(539,314,ls),
(664,314,o),
(700,257,o),
(700,197,cs),
(700,137,o),
(657,79,o),
(567,79,c),
(567,-25,l),
(698,-25,o),
(813,55,o),
(813,206,cs),
(813,316,o),
(737,416,o),
(573,416,cs),
(481,416,l),
(484,585,l),
(777,585,l),
(777,688,l)
);
},
{
closed = 1;
nodes = (
(567,79,l),
(493,79,o),
(437,121,o),
(425,195,c),
(313,195,l),
(320,77,o),
(401,-25,o),
(567,-25,c)
);
}
);
width = 1166;
},
{
layerId = m01;
width = 600;
}
);
unicode = 53;
},
{
glyphname = six;
lastChange = "2025-07-23 23:10:46 +0000";
layers = (
{
layerId = m001;
shapes = (
{
closed = 1;
nodes = (
(592,688,l),
(390,385,ls),
(349,324,o),
(327,270,o),
(327,209,cs),
(327,76,o),
(436,-24,o),
(581,-24,cs),
(727,-24,o),
(835,76,o),
(835,209,cs),
(835,342,o),
(728,441,o),
(600,441,cs),
(577,441,o),
(559,438,o),
(546,434,c),
(724,688,l)
);
},
{
closed = 1;
nodes = (
(662,341,o),
(723,287,o),
(723,209,cs),
(723,131,o),
(662,77,o),
(581,77,cs),
(501,77,o),
(439,130,o),
(439,209,cs),
(439,287,o),
(501,341,o),
(581,341,cs)
);
}
);
width = 1168;
},
{
layerId = m01;
width = 600;
}
);
unicode = 54;
},
{
glyphname = seven;
lastChange = "2025-07-23 23:10:46 +0000";
layers = (
{
layerId = m001;
shapes = (
{
closed = 1;
nodes = (
(314,700,l),
(314,598,l),
(664,598,l),
(365,0,l),
(492,0,l),
(795,615,l),
(795,700,l)
);
}
);
width = 1096;
},
{
layerId = m01;
width = 600;
}
);
unicode = 55;
},
{
glyphname = eight;
lastChange = "2025-07-23 23:10:46 +0000";
layers = (
{
layerId = m001;
shapes = (
{
closed = 1;
nodes = (
(498,700,o),
(396,626,o),
(396,500,cs),
(396,419,o),
(443,369,o),
(504,341,c),
(435,314,o),
(380,264,o),
(380,178,cs),
(380,51,o),
(489,-24,o),
(636,-24,cs),
(783,-24,o),
(893,51,o),
(893,178,cs),
(893,264,o),
(837,314,o),
(769,341,c),
(829,369,o),
(876,419,o),
(876,500,cs),
(876,626,o),
(774,700,o),
(636,700,cs)
);
},
{
closed = 1;
nodes = (
(719,293,o),
(777,255,o),
(777,184,cs),
(777,114,o),
(719,77,o),
(636,77,cs),
(553,77,o),
(495,114,o),
(495,184,cs),
(495,255,o),
(553,293,o),
(636,293,cs)
);
},
{
closed = 1;
nodes = (
(711,599,o),
(762,563,o),
(762,495,cs),
(762,424,o),
(711,388,o),
(636,388,cs),
(562,388,o),
(511,424,o),
(511,495,cs),
(511,563,o),
(562,599,o),
(636,599,cs)
);
}
);
width = 1272;
},
{
layerId = m01;
width = 600;
}
);
unicode = 56;
},
{
glyphname = nine;
lastChange = "2025-07-23 23:10:46 +0000";
layers = (
{
layerId = m001;
shapes = (
{
closed = 1;
nodes = (
(577,0,l),
(778,303,ls),
(819,364,o),
(841,418,o),
(841,480,cs),
(841,613,o),
(732,712,o),
(587,712,cs),
(442,712,o),
(333,613,o),
(333,480,cs),
(333,347,o),
(440,247,o),
(568,247,cs),
(592,247,o),
(609,250,o),
(622,254,c),
(444,0,l)
);
},
{
closed = 1;
nodes = (
(506,348,o),
(445,402,o),
(445,480,cs),
(445,558,o),
(506,612,o),
(587,612,cs),
(668,612,o),
(729,558,o),
(729,480,cs),
(729,402,o),
(668,348,o),
(587,348,cs)
);
}
);
width = 1168;
},
{
layerId = m01;
width = 600;
}
);
unicode = 57;
},
{
glyphname = colon;
lastChange = "2025-07-23 23:10:46 +0000";
layers = (
{
layerId = m001;
shapes = (
{
closed = 1;
nodes = (
(75,33,o),
(67,52,o),
(67,75,cs),
(67,98,o),
(75,117,o),
(91,133,cs),
(106,149,o),
(125,157,o),
(148,157,cs),
(171,157,o),
(190,149,o),
(206,133,cs),
(222,117,o),
(230,98,o),
(230,75,cs),
(230,52,o),
(222,33,o),
(206,18,cs),
(190,2,o),
(171,-6,o),
(148,-6,cs),
(125,-6,o),
(106,2,o),
(91,18,c)
);
},
{
closed = 1;
nodes = (
(75,390,o),
(67,409,o),
(67,432,cs),
(67,455,o),
(75,474,o),
(91,490,cs),
(106,506,o),
(125,514,o),
(148,514,cs),
(171,514,o),
(190,506,o),
(206,490,cs),
(222,474,o),
(230,455,o),
(230,432,cs),
(230,409,o),
(222,390,o),
(206,375,cs),
(190,359,o),
(171,351,o),
(148,351,cs),
(125,351,o),
(106,359,o),
(91,375,c)
);
}
);
width = 244;
},
{
layerId = m01;
width = 600;
}
);
unicode = 58;
},
{
glyphname = semicolon;
lastChange = "2025-07-23 23:10:46 +0000";
layers = (
{
layerId = m001;
shapes = (
{
closed = 1;
nodes = (
(100,370,o),
(92,389,o),
(92,412,cs),
(92,435,o),
(100,454,o),
(116,470,cs),
(131,486,o),
(150,494,o),
(173,494,cs),
(196,494,o),
(215,486,o),
(231,470,cs),
(247,454,o),
(255,435,o),
(255,412,cs),
(255,389,o),
(247,370,o),
(231,355,cs),
(215,339,o),
(196,331,o),
(173,331,cs),
(150,331,o),
(131,339,o),
(116,355,c)
);
},
{
closed = 1;
nodes = (
(115,-32,o),
(84,-66,o),
(55,-66,cs),
(35,-66,l),
(35,-148,l),
(86,-148,ls),
(172,-148,o),
(220,-98,o),
(220,-8,cs),
(220,129,l),
(115,129,l),
(115,3,ls)
);
}
);
width = 289;
},
{
layerId = m01;
width = 600;
}
);
unicode = 59;
},
{
glyphname = question;
lastChange = "2025-07-23 23:10:46 +0000";
layers = (
{
anchors = (
{
name = "new anchor";
pos = (162,207);
}
);
layerId = m001;
shapes = (
{
closed = 1;
nodes = (
(277,208,l),
(277,302,l),
(410,302,o),
(498,399,o),
(498,520,cs),
(498,650,o),
(404,738,o),
(269,738,cs),
(136,738,o),
(40,645,o),
(40,520,c),
(157,520,l),
(157,586,o),
(204,634,o),
(269,634,cs),
(334,634,o),
(381,586,o),
(381,520,cs),
(381,455,o),
(342,405,o),
(269,405,cs),
(261,405,l),
(161,405,o),
(161,306,o),
(161,208,c)
);
},
{
closed = 1;
nodes = (
(259,-10,o),
(290,21,o),
(290,59,cs),
(290,97,o),
(259,128,o),
(221,128,cs),
(183,128,o),
(152,97,o),
(152,59,cs),
(152,21,o),
(183,-10,o),
(221,-10,cs)
);
}
);
width = 538;
},
{
layerId = m01;
width = 600;
}
);
unicode = 63;
},
{
glyphname = at;
lastChange = "2025-07-23 23:10:46 +0000";
layers = (
{
layerId = m001;
shapes = (
{
closed = 1;
nodes = (
(536,100,o),
(588,122,o),
(630,160,c),
(656,128,o),
(696,110,o),
(744,110,cs),
(758,110,l),
(758,111,l),
(860,111,l),
(884,153,o),
(915,238,o),
(915,332,cs),
(915,570,o),
(743,738,o),
(493,738,cs),
(237,738,o),
(60,549,o),
(60,313,cs),
(60,76,o),
(229,-96,o),
(499,-96,cs),
(609,-96,l),
(609,8,l),
(499,8,ls),
(301,8,o),
(169,132,o),
(169,313,cs),
(169,502,o),
(312,634,o),
(497,634,cs),
(678,634,o),
(806,499,o),
(806,333,cs),
(806,289,o),
(799,250,o),
(787,215,c),
(743,215,l),
(717,220,o),
(702,240,o),
(702,266,cs),
(702,526,l),
(592,526,l),
(592,490,l),
(566,516,o),
(524,536,o),
(478,536,cs),
(358,536,o),
(254,438,o),
(254,318,cs),
(254,188,o),
(348,100,o),
(478,100,cs)
);
},
{
closed = 1;
nodes = (
(416,204,o),
(368,256,o),
(368,318,cs),
(368,386,o),
(416,432,o),
(478,432,cs),
(550,432,o),
(592,380,o),
(592,318,cs),
(592,256,o),
(546,204,o),
(478,204,cs)
);
}
);
width = 975;
},
{
layerId = m01;
width = 600;
}
);
unicode = 64;
},
{
glyphname = A;
lastChange = "2025-07-23 23:10:12 +0000";
layers = (
{
layerId = m001;
shapes = (
{
closed = 1;
nodes = (
(129,0,l),
(189,163,l),
(464,163,l),
(525,0,l),
(645,0,l),
(392,649,l),
(265,649,l),
(12,0,l)
);
},
{
closed = 1;
nodes = (
(326,530,l),
(425,264,l),
(227,264,l)
);
}
);
width = 657;
},
{
layerId = m01;
shapes = (
{
closed = 1;
nodes = (
(285,651,l),
(38,0,l),
(241,0,l),
(283,124,l),
(490,124,l),
(533,0,l),
(738,0,l),
(492,651,l)
);
},
{
closed = 1;
nodes = (
(435,281,l),
(338,281,l),
(386,436,l)
);
}
);
userData = {
public.truetype.instructions = {
formatVersion = "1";
id = "w711l570+0l503+178l203+178l137+0l10+0l286+709l425+709l701+0|l353+579l245+289l461+289|";
};
};
width = 775;
}
);
unicode = 65;
},
{
glyphname = B;
lastChange = "2025-07-23 23:10:12 +0000";
layers = (
{
layerId = m001;
shapes = (
{
closed = 1;
nodes = (
(317,0,ls),
(437,0,o),
(518,74,o),
(518,179,cs),
(518,255,o),
(471,316,o),
(402,334,c),
(460,355,o),
(498,406,o),
(498,474,cs),
(498,578,o),
(423,649,o),
(300,649,cs),
(68,649,l),
(68,0,l)
);
},
{
closed = 1;
nodes = (
(177,282,l),
(301,282,ls),
(334,282,o),
(360,274,o),
(379,256,cs),
(397,239,o),
(406,215,o),
(406,187,cs),
(406,158,o),
(396,135,o),
(377,119,cs),
(357,102,o),
(331,93,o),
(298,93,cs),
(177,93,l)
);
},
{
closed = 1;
nodes = (
(177,555,l),
(283,555,ls),
(349,555,o),
(388,522,o),
(388,465,cs),
(388,410,o),
(350,374,o),
(286,374,cs),
(177,374,l)
);
}
);
width = 564;
},
{
layerId = m01;
shapes = (
{
closed = 1;
nodes = (
(76,0,l),
(384,0,ls),
(556,0,o),
(632,71,o),
(632,187,cs),
(632,250,o),
(590,305,o),
(532,326,c),
(584,351,o),
(619,400,o),
(619,463,cs),
(619,577,o),
(542,649,o),
(368,649,cs),
(76,649,l)
);
},
{
closed = 1;
nodes = (
(397,245,o),
(424,235,o),
(424,199,cs),
(424,161,o),
(397,151,o),
(347,152,cs),
(262,153,l),
(262,245,l),
(347,245,ls)
);
},
{
closed = 1;
nodes = (
(384,496,o),
(409,487,o),
(409,452,cs),
(409,415,o),
(384,406,o),
(336,406,cs),
(262,406,l),
(262,496,l),
(337,496,ls)
);
}
);
width = 683;
}
);
unicode = 66;
},
{
glyphname = C;
lastChange = "2025-07-23 23:10:12 +0000";
layers = (
{
layerId = m001;
shapes = (
{
closed = 1;
nodes = (
(457,-15,o),
(522,6,o),
(573,47,cs),
(624,88,o),
(658,140,o),
(673,200,c),
(573,233,l),
(548,152,o),
(481,90,o),
(379,90,cs),
(320,90,o),
(270,111,o),
(228,152,cs),
(185,194,o),
(164,250,o),
(164,323,cs),
(164,397,o),
(185,455,o),
(228,496,cs),
(271,538,o),
(321,558,o),
(379,558,cs),
(483,558,o),
(546,500,o),
(567,416,c),
(670,451,l),
(655,512,o),
(622,562,o),
(572,602,cs),
(521,641,o),
(456,661,o),
(379,661,cs),
(290,661,o),
(214,630,o),
(149,568,cs),
(84,506,o),
(52,424,o),
(52,323,cs),
(52,221,o),
(84,139,o),
(148,77,cs),
(211,16,o),
(289,-15,o),
(379,-15,cs)
);
}
);
width = 705;
},
{
layerId = m01;
shapes = (
{
closed = 1;
nodes = (
(197,648,o),
(55,509,o),
(55,312,cs),
(55,113,o),
(197,-26,o),
(398,-26,cs),
(527,-26,o),
(627,32,o),
(688,124,c),
(533,233,l),
(502,184,o),
(457,160,o),
(402,160,cs),
(330,160,o),
(262,210,o),
(262,311,cs),
(262,399,o),
(322,461,o),
(402,461,cs),
(457,461,o),
(501,436,o),
(530,387,c),
(695,484,l),
(639,588,o),
(525,648,o),
(398,648,cs)
);
}
);
userData = {
public.truetype.instructions = {
formatVersion = "1";
id = 361929ed1205b15b247bf5b9eeae6c789f4dd6c76e274cfe5f4f60d4ebf3348e83ff50d2c8f58234ee3c6792697d28ce232aafa60978262e1b026fb628a451c9;
};
};
width = 745;
}
);
unicode = 67;
},
{
glyphname = D;
lastChange = "2025-07-23 23:10:12 +0000";
layers = (
{
layerId = m001;
shapes = (
{
closed = 1;
nodes = (
(297,0,ls),
(389,0,o),
(465,28,o),
(524,86,cs),
(583,144,o),
(614,222,o),
(614,323,cs),
(614,425,o),
(584,504,o),
(525,562,cs),
(465,619,o),
(389,649,o),
(298,649,cs),
(68,649,l),
(68,0,l)
);
},
{
closed = 1;
nodes = (
(178,548,l),
(294,548,ls),
(414,548,o),
(499,468,o),
(499,323,cs),
(499,178,o),
(413,101,o),
(293,101,cs),
(178,101,l)
);
}
);
width = 666;
},
{
layerId = m01;
shapes = (
{
closed = 1;
nodes = (
(79,651,l),
(79,0,l),
(366,0,ls),
(570,0,o),
(704,129,o),
(704,326,cs),
(704,522,o),
(570,651,o),
(366,651,cs)
);
},
{
closed = 1;
nodes = (
(451,470,o),
(502,421,o),
(502,326,cs),
(502,231,o),
(451,180,o),
(344,180,cs),
(265,180,l),
(265,470,l),
(344,470,ls)
);
}
);
width = 758;
}
);
unicode = 68;
},
{
glyphname = E;
lastChange = "2025-07-23 23:10:12 +0000";
layers = (
{
layerId = m001;
shapes = (
{
closed = 1;
nodes = (
(468,0,l),
(468,102,l),
(177,102,l),
(177,275,l),
(441,275,l),
(441,374,l),
(177,374,l),
(177,546,l),
(468,546,l),
(468,649,l),
(68,649,l),
(68,0,l)
);
}
);
width = 524;
},
{
layerId = m01;
shapes = (
{
closed = 1;
nodes = (
(259,156,l),
(259,250,l),
(548,250,l),
(548,407,l),
(259,407,l),
(259,492,l),
(572,492,l),
(572,650,l),
(73,650,l),
(73,0,l),
(572,0,l),
(572,156,l)
);
}
);
width = 635;
}
);
unicode = 69;
},
{
glyphname = F;
lastChange = "2025-07-23 23:10:12 +0000";
layers = (
{
layerId = m001;
shapes = (
{
closed = 1;
nodes = (
(178,0,l),
(178,262,l),
(441,262,l),
(441,363,l),
(178,363,l),
(178,545,l),
(471,545,l),
(471,649,l),
(68,649,l),
(68,0,l)
);
}
);
width = 505;
},
{
layerId = m01;
shapes = (
{
closed = 1;
nodes = (
(256,388,l),
(256,486,l),
(569,486,l),
(569,641,l),
(73,641,l),
(73,0,l),
(256,0,l),
(256,233,l),
(546,233,l),
(546,388,l)
);
}
);
width = 622;
}
);
unicode = 70;
},
{
glyphname = G;
lastChange = "2025-07-23 23:10:12 +0000";
layers = (
{
layerId = m001;
shapes = (
{
closed = 1;
nodes = (
(456,-15,o),
(527,15,o),
(587,76,c),
(587,75,ls),
(587,28,o),
(670,-1,o),
(714,-1,cs),
(727,-1,l),
(727,94,l),
(723,94,ls),
(694,94,o),
(675,114,o),
(675,141,cs),
(675,295,l),
(676,305,o),
(676,316,o),
(676,327,c),
(350,327,l),
(350,231,l),
(564,231,l),
(560,195,o),
(543,163,o),
(513,132,cs),
(481,101,o),
(437,86,o),
(378,86,cs),
(319,86,o),
(267,107,o),
(226,149,cs),
(185,190,o),
(164,249,o),
(164,324,cs),
(164,399,o),
(185,457,o),
(228,498,cs),
(271,539,o),
(321,560,o),
(379,560,cs),
(477,560,o),
(545,503,o),
(568,424,c),
(672,464,l),
(635,579,o),
(530,661,o),
(379,661,cs),
(321,661,o),
(268,648,o),
(220,623,cs),
(171,596,o),
(131,557,o),
(100,505,cs),
(68,453,o),
(52,392,o),
(52,324,cs),
(52,220,o),
(83,139,o),
(146,77,cs),
(208,16,o),
(283,-15,o),
(372,-15,cs)
);
}
);
width = 749;
},
{
layerId = m01;
shapes = (
{
closed = 1;
nodes = (
(621,75,ls),
(621,28,o),
(705,-1,o),
(749,-1,cs),
(761,-1,l),
(761,140,l),
(758,140,ls),
(728,140,o),
(710,160,o),
(710,188,cs),
(710,296,ls),
(710,351,o),
(711,368,q),
(617,368,l),
(621,76,l)
);
},
{
closed = 1;
nodes = (
(621,76,l),
(621,76,l)
);
},
{
closed = 1;
nodes = (
(200,653,o),
(58,516,o),
(58,321,cs),
(58,127,o),
(200,-10,o),
(401,-10,cs),
(552,-10,o),
(710,97,o),
(710,310,cs),
(710,329,o),
(709,348,o),
(706,368,c),
(388,368,l),
(388,241,l),
(538,241,l),
(520,178,o),
(474,146,o),
(394,146,cs),
(311,146,o),
(236,205,o),
(236,321,cs),
(236,422,o),
(300,491,o),
(391,491,cs),
(445,491,o),
(484,472,o),
(512,444,c),
(635,565,l),
(581,620,o),
(502,653,o),
(401,653,cs)
);
}
);
userData = {
public.truetype.instructions = {
formatVersion = "1";
id = bcbb13dfe5eed883e3be36537e233dacef0fe64e9342da9854657b3bc54103600ab909e14ab921b1030898d2962d2a0470998d1bfc530ec42fdaf470f0828302;
};
};
width = 824;
}
);
unicode = 71;
},
{
glyphname = H;
lastChange = "2025-07-23 23:10:12 +0000";
layers = (
{
layerId = m001;
shapes = (
{
closed = 1;
nodes = (
(178,0,l),
(178,277,l),
(483,277,l),
(483,0,l),
(594,0,l),
(594,649,l),
(483,649,l),
(483,381,l),
(178,381,l),
(178,649,l),
(68,649,l),
(68,0,l)
);
}
);
width = 662;
},
{
layerId = m01;
shapes = (
{
closed = 1;
nodes = (
(77,641,l),
(77,0,l),
(251,0,l),
(251,244,l),
(488,244,l),
(488,0,l),
(662,0,l),
(662,641,l),
(488,641,l),
(488,404,l),
(251,404,l),
(251,641,l)
);
}
);
width = 739;
}
);
unicode = 72;
},
{
glyphname = I;
lastChange = "2025-07-23 23:10:12 +0000";
layers = (
{
layerId = m001;
shapes = (
{
closed = 1;
nodes = (
(180,0,l),
(180,649,l),
(68,649,l),
(68,0,l)
);
}
);
width = 248;
},
{
layerId = m01;
shapes = (
{
closed = 1;
nodes = (
(49,641,l),
(49,0,l),
(241,0,l),
(241,641,l)
);
}
);
width = 290;
}
);
unicode = 73;
},
{
glyphname = J;
lastChange = "2025-07-23 23:10:12 +0000";
layers = (
{
layerId = m001;
shapes = (
{
closed = 1;
nodes = (
(298,-15,o),
(348,5,o),
(385,46,cs),
(423,87,o),
(442,137,o),
(442,196,cs),
(442,647,l),
(332,647,l),
(332,194,ls),
(332,128,o),
(295,88,o),
(237,88,cs),
(177,88,o),
(137,125,o),
(137,198,cs),
(137,237,l),
(30,237,l),
(30,195,ls),
(30,67,o),
(111,-15,o),
(238,-15,cs)
);
}
);
width = 510;
},
{
layerId = m01;
shapes = (
{
closed = 1;
nodes = (
(338,-15,o),
(481,108,o),
(479,196,qs),
(479,647,l),
(316,647,l),
(316,253,ls),
(316,217,o),
(279,177,o),
(247,177,qs),
(214,177,o),
(175,218,o),
(175,258,qs),
(175,256,l),
(21,254,l),
(21,195,ls),
(21,99,o),
(152,-15,o),
(247,-15,qs)
);
}
);
userData = {
public.truetype.instructions = {
formatVersion = "1";
id = d3fed825f764593ca21fa46647a1a9def8ddb7eb13b4609b5d599d9440ee26fa685a452c9c5f3136eb857b93f893c94c81b4ccdc5e7028e3032e7df03d4eb885;
};
};
width = 545;
}
);
unicode = 74;
},
{
glyphname = K;
lastChange = "2025-07-23 23:10:12 +0000";
layers = (
{
layerId = m001;
shapes = (
{
closed = 1;
nodes = (
(268,307,l),
(460,0,l),
(592,0,l),
(338,385,l),
(577,649,l),
(444,649,l),
(178,352,l),
(178,649,l),
(68,649,l),
(68,0,l),
(178,0,l),
(178,209,l)
);
}
);
width = 604;
},
{
layerId = m01;
shapes = (
{
closed = 1;
nodes = (
(696,0,l),
(444,328,l),
(676,641,l),
(465,641,l),
(303,400,l),
(253,400,l),
(253,641,l),
(79,641,l),
(79,0,l),
(253,0,l),
(253,245,l),
(302,245,l),
(483,0,l)
);
}
);
width = 715;
}
);
unicode = 75;
},
{
glyphname = L;
lastChange = "2025-07-23 23:10:12 +0000";
layers = (
{
layerId = m001;
shapes = (
{
closed = 1;
nodes = (
(475,104,l),
(178,104,l),
(178,649,l),
(68,649,l),
(68,0,l),
(475,0,l)
);
}
);
width = 487;
},
{
layerId = m01;
shapes = (
{
closed = 1;
nodes = (
(246,160,l),
(246,641,l),
(72,641,l),
(72,0,l),
(555,0,l),
(555,160,l)
);
}
);
width = 587;
}
);
unicode = 76;
},
{
glyphname = M;
lastChange = "2025-07-23 23:10:12 +0000";
layers = (
{
layerId = m001;
shapes = (
{
closed = 1;
nodes = (
(782,649,l),
(633,649,l),
(425,154,l),
(215,649,l),
(68,649,l),
(68,0,l),
(175,0,l),
(175,476,l),
(376,0,l),
(471,0,l),
(673,478,l),
(673,0,l),
(782,0,l)
);
}
);
width = 850;
},
{
layerId = m01;
shapes = (
{
closed = 1;
nodes = (
(582,641,l),
(454,255,l),
(326,641,l),
(84,641,l),
(84,0,l),
(258,0,l),
(258,401,l),
(362,59,l),
(546,59,l),
(650,401,l),
(650,0,l),
(824,0,l),
(824,641,l)
);
}
);
width = 908;
}
);
unicode = 77;
},
{
glyphname = N;
lastChange = "2025-07-23 23:10:12 +0000";
layers = (
{
layerId = m001;
shapes = (
{
closed = 1;
nodes = (
(613,649,l),
(503,649,l),
(503,188,l),
(208,649,l),
(68,649,l),
(68,0,l),
(178,0,l),
(178,491,l),
(498,0,l),
(613,0,l)
);
}
);
width = 681;
},
{
layerId = m01;
shapes = (
{
closed = 1;
nodes = (
(512,641,l),
(512,281,l),
(247,641,l),
(78,641,l),
(78,0,l),
(252,0,l),
(252,361,l),
(517,0,l),
(686,0,l),
(686,641,l)
);
}
);
width = 764;
}
);
unicode = 78;
},
{
glyphname = O;
lastChange = "2025-07-23 23:10:12 +0000";
layers = (
{
layerId = m001;
shapes = (
{
closed = 1;
nodes = (
(594,-16,o),
(721,147,o),
(721,321,cs),
(721,495,o),
(594,658,o),
(387,658,cs),
(180,658,o),
(52,495,o),
(52,321,cs),
(52,147,o),
(180,-16,o),
(387,-16,cs)
);
},
{
closed = 1;
nodes = (
(265,89,o),
(164,181,o),
(164,321,cs),
(164,446,o),
(252,552,o),
(387,552,cs),
(509,552,o),
(611,461,o),
(611,321,cs),
(611,196,o),
(521,89,o),
(387,89,cs)
);
}
);
width = 773;
},
{
layerId = m01;
shapes = (
{
closed = 1;
nodes = (
(197,638,o),
(56,497,o),
(56,306,cs),
(56,115,o),
(197,-26,o),
(395,-26,cs),
(594,-26,o),
(734,115,o),
(734,306,cs),
(734,497,o),
(594,638,o),
(395,638,cs)
);
},
{
closed = 1;
nodes = (
(488,472,o),
(553,404,o),
(553,306,cs),
(553,208,o),
(488,141,o),
(395,141,cs),
(302,141,o),
(238,208,o),
(238,306,cs),
(238,404,o),
(302,472,o),
(395,472,cs)
);
}
);
width = 790;
}
);
unicode = 79;
},
{
glyphname = P;
lastChange = "2025-07-23 23:10:12 +0000";
layers = (
{
layerId = m001;
shapes = (
{
closed = 1;
nodes = (
(432,253,o),
(515,335,o),
(515,451,cs),
(515,566,o),
(432,649,o),
(308,649,cs),
(68,649,l),
(68,0,l),
(178,0,l),
(178,253,l),
(308,253,ls)
);
},
{
closed = 1;
nodes = (
(178,552,l),
(292,552,ls),
(362,552,o),
(404,512,o),
(404,450,cs),
(404,389,o),
(362,350,o),
(292,350,cs),
(178,350,l)
);
}
);
width = 539;
},
{
layerId = m01;
shapes = (
{
closed = 1;
nodes = (
(523,202,o),
(609,290,o),
(609,419,cs),
(609,551,o),
(523,641,o),
(360,641,cs),
(75,641,l),
(75,0,l),
(249,0,l),
(249,202,l),
(363,202,ls)
);
},
{
closed = 1;
nodes = (
(401,485,o),
(434,461,o),
(434,419,cs),
(434,378,o),
(401,354,o),
(358,354,cs),
(249,354,l),
(249,485,l),
(358,485,ls)
);
}
);
width = 654;
}
);
unicode = 80;
},
{
glyphname = Q;
lastChange = "2025-07-23 23:10:12 +0000";
layers = (
{
layerId = m001;
shapes = (
{
closed = 1;
nodes = (
(610,3,o),
(728,148,o),
(728,305,cs),
(728,480,o),
(599,644,o),
(391,644,cs),
(181,644,o),
(52,480,o),
(52,305,cs),
(52,148,o),
(172,3,o),
(340,-29,c),
(340,-134,o),
(388,-174,o),
(507,-174,cs),
(593,-174,l),
(593,-93,l),
(513,-93,ls),
(463,-93,o),
(441,-76,o),
(441,-29,c)
);
},
{
closed = 1;
nodes = (
(262,71,o),
(165,171,o),
(165,305,cs),
(165,438,o),
(262,538,o),
(391,538,cs),
(519,538,o),
(615,438,o),
(615,305,cs),
(615,171,o),
(519,71,o),
(391,71,cs)
);
}
);
width = 780;
},
{
anchors = (
{
name = "Anchor-2";
pos = (1138,-17);
}
);
layerId = m01;
shapes = (
{
closed = 1;
nodes = (
(302,139,o),
(235,208,o),
(235,298,cs),
(235,390,o),
(302,458,o),
(391,458,cs),
(478,458,o),
(544,390,o),
(544,298,cs),
(544,208,o),
(478,139,o),
(391,139,cs)
);
},
{
closed = 1;
nodes = (
(468,-67,o),
(475,-78,o),
(512,-78,q),
(592,-78,l),
(592,-204,l),
(506,-204,l),
(417,-204,o),
(311,-110,o),
(311,-31,q),
(468,-31,l)
);
},
{
closed = 1;
nodes = (
(636,0,o),
(727,146,o),
(727,302,cs),
(727,478,o),
(598,641,o),
(390,641,cs),
(180,641,o),
(51,478,o),
(51,302,cs),
(51,146,o),
(144,0,o),
(311,-31,c),
(468,-31,l)
);
}
);
userData = {
public.truetype.instructions = {
assembly = "NPUSHB[ ]	/* 44 values pushed */
14 3 2 0 3 1 76 0 3 4 0 4 3 0 128 0 4 4 2 97 0 2 2 51 77 0 0 0 1 96 0 1 1 50 1 78 38 38 42 33 38 5 9 27
CALL[ ]	/* CallFunction */";
formatVersion = "1";
id = "04409590062e04d58dbfc411dbfadd67985283cdce076f031602df9584515e1c97bc16d2308ab77c4edd638169dfe8cad2119534bbb61962958ae437fd29f7df";
};
};
width = 778;
}
);
unicode = 81;
},
{
glyphname = R;
lastChange = "2025-07-23 23:10:12 +0000";
layers = (
{
layerId = m001;
shapes = (
{
closed = 1;
nodes = (
(173,0,l),
(173,278,l),
(255,278,l),
(429,0,l),
(538,0,l),
(361,283,l),
(469,288,o),
(538,387,o),
(538,463,cs),
(538,565,o),
(463,649,o),
(351,649,cs),
(68,649,l),
(68,0,l)
);
},
{
closed = 1;
nodes = (
(173,556,l),
(341,556,ls),
(395,556,o),
(433,519,o),
(433,463,cs),
(433,408,o),
(395,371,o),
(341,371,cs),
(173,371,l)
);
}
);
width = 580;
},
{
layerId = m01;
shapes = (
{
closed = 1;
nodes = (
(75,641,l),
(75,0,l),
(249,0,l),
(249,228,l),
(258,228,l),
(413,0,l),
(618,0,l),
(443,235,l),
(552,258,o),
(609,328,o),
(609,427,cs),
(609,556,o),
(524,641,o),
(361,641,cs)
);
},
{
closed = 1;
nodes = (
(402,485,o),
(433,467,o),
(433,427,cs),
(433,389,o),
(402,371,o),
(359,371,cs),
(249,371,l),
(249,485,l),
(359,485,ls)
);
}
);
width = 668;
}
);
unicode = 82;
},
{
glyphname = S;
lastChange = "2025-07-23 23:10:12 +0000";
layers = (
{
layerId = m001;
shapes = (
{
closed = 1;
nodes = (
(371,0,ls),
(481,0,o),
(556,90,o),
(556,186,cs),
(556,293,o),
(481,371,o),
(371,371,cs),
(249,371,ls),
(193,371,o),
(155,408,o),
(155,463,cs),
(155,519,o),
(193,555,o),
(249,555,cs),
(501,555,l),
(501,649,l),
(228,649,ls),
(117,649,o),
(42,561,o),
(42,463,cs),
(42,356,o),
(117,278,o),
(228,278,cs),
(350,278,ls),
(405,278,o),
(443,241,o),
(443,186,cs),
(443,130,o),
(405,92,o),
(350,92,cs),
(53,92,l),
(53,0,l)
);
}
);
width = 590;
},
{
layerId = m01;
shapes = (
{
closed = 1;
nodes = (
(387,0,ls),
(497,0,o),
(572,90,o),
(572,186,cs),
(572,293,o),
(497,393,o),
(387,393,cs),
(310,393,ls),
(254,393,o),
(216,408,o),
(216,463,cs),
(216,519,o),
(254,510,o),
(310,510,cs),
(517,510,l),
(517,649,l),
(244,649,ls),
(133,649,o),
(58,561,o),
(58,463,cs),
(58,356,o),
(133,255,o),
(244,255,cs),
(321,255,ls),
(376,255,o),
(414,241,o),
(414,186,cs),
(414,130,o),
(376,138,o),
(321,138,cs),
(69,138,l),
(69,0,l)
);
}
);
width = 630;
}
);
unicode = 83;
},
{
glyphname = T;
lastChange = "2025-07-23 23:10:12 +0000";
layers = (
{
layerId = m001;
shapes = (
{
closed = 1;
nodes = (
(561,649,l),
(30,649,l),
(30,545,l),
(240,545,l),
(240,0,l),
(350,0,l),
(350,545,l),
(561,545,l)
);
}
);
width = 591;
},
{
layerId = m01;
shapes = (
{
closed = 1;
nodes = (
(45,641,l),
(45,480,l),
(227,480,l),
(227,0,l),
(401,0,l),
(401,480,l),
(583,480,l),
(583,641,l)
);
}
);
width = 628;
}
);
unicode = 84;
},
{
glyphname = U;
lastChange = "2025-07-23 23:10:12 +0000";
layers = (
{
layerId = m001;
shapes = (
{
closed = 1;
nodes = (
(60,149,o),
(82,90,o),
(127,48,cs),
(172,6,o),
(231,-15,o),
(301,-15,cs),
(372,-15,o),
(430,6,o),
(476,48,cs),
(521,90,o),
(544,149,o),
(544,225,cs),
(544,647,l),
(434,647,l),
(434,231,ls),
(434,140,o),
(385,89,o),
(301,89,cs),
(218,89,o),
(168,141,o),
(168,231,cs),
(168,647,l),
(60,647,l),
(60,225,ls)
);
}
);
width = 604;
},
{
layerId = m01;
shapes = (
{
closed = 1;
nodes = (
(428,639,l),
(428,265,ls),
(428,192,o),
(386,154,o),
(318,154,cs),
(251,154,o),
(209,192,o),
(209,265,cs),
(209,639,l),
(34,639,l),
(34,261,ls),
(34,86,o),
(134,-13,o),
(318,-13,cs),
(502,-13,o),
(602,86,o),
(602,261,cs),
(602,639,l)
);
}
);
width = 636;
}
);
unicode = 85;
},
{
glyphname = V;
lastChange = "2025-07-23 23:10:12 +0000";
layers = (
{
layerId = m001;
shapes = (
{
closed = 1;
nodes = (
(131,649,l),
(12,649,l),
(253,0,l),
(365,0,l),
(610,649,l),
(494,649,l),
(312,144,l)
);
}
);
width = 622;
},
{
layerId = m01;
shapes = (
{
closed = 1;
nodes = (
(527,641,l),
(374,182,l),
(221,641,l),
(36,641,l),
(270,0,l),
(474,0,l),
(708,641,l)
);
}
);
width = 744;
}
);
unicode = 86;
},
{
glyphname = W;
lastChange = "2025-07-23 23:10:12 +0000";
layers = (
{
layerId = m001;
shapes = (
{
closed = 1;
nodes = (
(524,649,l),
(409,649,l),
(257,175,l),
(127,649,l),
(12,649,l),
(196,0,l),
(309,0,l),
(466,490,l),
(623,0,l),
(737,0,l),
(919,649,l),
(805,649,l),
(678,171,l)
);
}
);
width = 931;
},
{
layerId = m01;
shapes = (
{
closed = 1;
nodes = (
(867,641,l),
(759,210,l),
(643,641,l),
(458,641,l),
(342,211,l),
(233,641,l),
(54,641,l),
(237,0,l),
(442,0,l),
(549,375,l),
(656,0,l),
(861,0,l),
(1044,641,l)
);
}
);
width = 1098;
}
);
unicode = 87;
},
{
glyphname = X;
lastChange = "2025-07-23 23:10:12 +0000";
layers = (
{
layerId = m001;
shapes = (
{
closed = 1;
nodes = (
(449,649,l),
(297,411,l),
(146,649,l),
(14,649,l),
(229,325,l),
(12,0,l),
(141,0,l),
(294,237,l),
(445,0,l),
(577,0,l),
(362,324,l),
(578,649,l)
);
}
);
width = 590;
},
{
layerId = m01;
shapes = (
{
closed = 1;
nodes = (
(454,641,l),
(342,451,l),
(230,641,l),
(34,641,l),
(236,322,l),
(34,0,l),
(229,0,l),
(340,190,l),
(453,0,l),
(649,0,l),
(446,323,l),
(649,641,l)
);
}
);
width = 683;
}
);
unicode = 88;
},
{
glyphname = Y;
lastChange = "2025-07-23 23:10:12 +0000";
layers = (
{
layerId = m001;
shapes = (
{
closed = 1;
nodes = (
(239,0,l),
(349,0,l),
(349,275,l),
(578,649,l),
(454,649,l),
(298,377,l),
(142,649,l),
(12,649,l),
(239,275,l)
);
}
);
width = 590;
},
{
layerId = m01;
shapes = (
{
closed = 1;
nodes = (
(491,641,l),
(362,399,l),
(232,641,l),
(32,641,l),
(274,241,l),
(274,0,l),
(448,0,l),
(448,242,l),
(684,641,l)
);
}
);
width = 716;
}
);
unicode = 89;
},
{
glyphname = Z;
lastChange = "2025-07-23 23:10:12 +0000";
layers = (
{
layerId = m001;
shapes = (
{
closed = 1;
nodes = (
(564,104,l),
(196,104,l),
(560,544,l),
(560,649,l),
(69,649,l),
(69,545,l),
(418,545,l),
(58,108,l),
(58,0,l),
(564,0,l)
);
}
);
width = 629;
},
{
layerId = m01;
shapes = (
{
closed = 1;
nodes = (
(55,641,l),
(55,486,l),
(355,486,l),
(55,136,l),
(55,0,l),
(585,0,l),
(585,155,l),
(286,155,l),
(585,504,l),
(585,641,l)
);
}
);
width = 640;
}
);
unicode = 90;
},
{
glyphname = bracketleft;
lastChange = "2025-07-23 23:10:46 +0000";
layers = (
{
layerId = m001;
shapes = (
{
closed = 1;
nodes = (
(428,-208,l),
(428,-104,l),
(194,-104,l),
(194,832,l),
(428,832,l),
(428,936,l),
(80,936,l),
(80,-208,l)
);
}
);
width = 600;
},
{
layerId = m01;
width = 600;
}
);
unicode = 91;
},
{
glyphname = backslash;
lastChange = "2025-07-23 23:10:46 +0000";
layers = (
{
layerId = m001;
shapes = (
{
closed = 1;
nodes = (
(387,-10,l),
(155,738,l),
(40,738,l),
(272,-10,l)
);
}
);
width = 426;
},
{
layerId = m01;
width = 600;
}
);
unicode = 92;
},
{
glyphname = bracketright;
lastChange = "2025-07-23 23:10:46 +0000";
layers = (
{
layerId = m001;
shapes = (
{
closed = 1;
nodes = (
(364,-208,l),
(364,936,l),
(16,936,l),
(16,832,l),
(250,832,l),
(250,-104,l),
(16,-104,l),
(16,-208,l)
);
}
);
width = 443;
},
{
layerId = m01;
width = 600;
}
);
unicode = 93;
},
{
glyphname = underscore;
lastChange = "2025-07-23 23:10:46 +0000";
layers = (
{
layerId = m001;
shapes = (
{
closed = 1;
nodes = (
(512,-114,l),
(512,-10,l),
(24,-10,l),
(24,-114,l)
);
}
);
width = 536;
},
{
layerId = m01;
width = 600;
}
);
unicode = 95;
},
{
glyphname = quoteleft;
lastChange = "2025-07-23 23:10:46 +0000";
layers = (
{
layerId = m001;
shapes = (
{
closed = 1;
nodes = (
(151,606,o),
(169,626,o),
(197,626,cs),
(215,626,l),
(215,721,l),
(168,721,ls),
(89,721,o),
(35,665,o),
(35,582,cs),
(35,455,l),
(151,455,l),
(151,572,ls)
);
}
);
width = 270;
},
{
layerId = m01;
width = 600;
}
);
unicode = 8216;
},
{
glyphname = a;
lastChange = "2025-07-23 23:10:12 +0000";
layers = (
{
layerId = m001;
shapes = (
{
closed = 1;
nodes = (
(326,-10,o),
(378,17,o),
(420,55,c),
(446,23,o),
(486,0,o),
(534,0,cs),
(548,0,l),
(548,104,l),
(544,104,ls),
(512,104,o),
(492,126,o),
(492,156,cs),
(492,416,l),
(382,416,l),
(382,380,l),
(356,406,o),
(314,426,o),
(268,426,cs),
(148,426,o),
(44,328,o),
(44,208,cs),
(44,78,o),
(138,-10,o),
(268,-10,cs)
);
},
{
closed = 1;
nodes = (
(206,94,o),
(158,146,o),
(158,208,cs),
(158,276,o),
(206,322,o),
(268,322,cs),
(340,322,o),
(382,270,o),
(382,208,cs),
(382,146,o),
(336,94,o),
(268,94,cs)
);
}
);
width = 612;
},
{
layerId = m01;
shapes = (
{
closed = 1;
nodes = (
(327,-10,o),
(379,17,o),
(421,55,c),
(447,23,o),
(487,0,o),
(535,0,cs),
(549,0,l),
(549,134,l),
(545,134,ls),
(532,134,o),
(523,141,o),
(523,156,cs),
(523,416,l),
(383,416,l),
(383,380,l),
(357,406,o),
(315,426,o),
(269,426,cs),
(149,426,o),
(45,328,o),
(45,208,cs),
(45,78,o),
(139,-10,o),
(269,-10,cs)
);
},
{
closed = 1;
nodes = (
(244,136,o),
(211,171,o),
(211,213,cs),
(211,258,o),
(244,289,o),
(285,289,cs),
(333,289,o),
(362,254,o),
(362,213,cs),
(362,171,o),
(331,136,o),
(285,136,cs)
);
}
);
width = 599;
}
);
unicode = 97;
},
{
glyphname = b;
lastChange = "2025-07-23 23:22:02 +0000";
layers = (
{
layerId = m001;
shapes = (
{
closed = 1;
nodes = (
(454,-10,o),
(548,78,o),
(548,208,cs),
(548,328,o),
(448,426,o),
(330,426,cs),
(288,426,o),
(248,416,o),
(212,390,c),
(212,650,l),
(100,650,l),
(100,208,ls),
(100,88,o),
(204,-10,o),
(324,-10,cs)
);
},
{
closed = 1;
nodes = (
(258,94,o),
(212,144,o),
(212,208,cs),
(212,274,o),
(258,322,o),
(324,322,cs),
(388,322,o),
(436,274,o),
(436,208,cs),
(436,144,o),
(388,94,o),
(324,94,cs)
);
},
{
closed = 0;
nodes = (
(210,380,l),
(210,416,l),
(100,416,l),
(100,156,ls),
(100,132,o),
(87,113,o),
(66,107,cs),
(63,106,o),
(59,105,o),
(56,105,c),
(56,0,l),
(58,0,ls),
(61,0,o),
(63,0,o),
(66,0,cs),
(110,2,o),
(147,25,o),
(172,55,c)
);
},
{
closed = 0;
nodes = (
(210,208,l)
);
}
);
width = 612;
},
{
layerId = m01;
shapes = (
{
closed = 1;
nodes = (
(408,-10,o),
(512,88,o),
(512,208,cs),
(512,338,o),
(424,426,o),
(298,426,cs),
(253,426,o),
(228,417,o),
(206,400,c),
(206,650,l),
(64,650,l),
(64,218,ls),
(64,88,o),
(158,-10,o),
(288,-10,cs)
);
},
{
closed = 1;
nodes = (
(244,136,o),
(211,171,o),
(211,213,cs),
(211,258,o),
(244,289,o),
(285,289,cs),
(333,289,o),
(362,254,o),
(362,213,cs),
(362,171,o),
(331,136,o),
(285,136,cs)
);
},
{
closed = 1;
nodes = (
(204,380,l),
(204,416,l),
(64,416,l),
(64,156,ls),
(64,141,o),
(55,134,o),
(42,134,cs),
(38,134,l),
(38,0,l),
(52,0,ls),
(100,0,o),
(140,23,o),
(166,55,c)
);
}
);
width = 556;
}
);
unicode = 98;
},
{
glyphname = c;
lastChange = "2025-07-23 23:10:12 +0000";
layers = (
{
layerId = m001;
shapes = (
{
closed = 1;
nodes = (
(326,-10,o),
(382,14,o),
(422,56,c),
(348,128,l),
(328,108,o),
(298,94,o),
(268,94,cs),
(204,94,o),
(156,144,o),
(156,208,cs),
(156,274,o),
(204,322,o),
(268,322,cs),
(300,322,o),
(328,310,o),
(350,290,c),
(424,364,l),
(380,408,o),
(330,426,o),
(268,426,cs),
(148,426,o),
(44,328,o),
(44,208,cs),
(44,78,o),
(138,-10,o),
(268,-10,cs)
);
}
);
width = 464;
},
{
layerId = m01;
shapes = (
{
closed = 1;
nodes = (
(326,-10,o),
(382,14,o),
(422,56,c),
(329,156,l),
(316,142,o),
(296,133,o),
(277,133,cs),
(234,133,o),
(203,166,o),
(203,208,cs),
(203,252,o),
(234,283,o),
(277,283,cs),
(297,283,o),
(316,275,o),
(330,262,c),
(424,364,l),
(380,408,o),
(330,426,o),
(268,426,cs),
(148,426,o),
(44,328,o),
(44,208,cs),
(44,78,o),
(138,-10,o),
(268,-10,cs)
);
}
);
width = 464;
}
);
unicode = 99;
},
{
glyphname = d;
lastChange = "2025-07-23 23:21:09 +0000";
layers = (
{
layerId = m001;
shapes = (
{
closed = 1;
nodes = (
(400,-10,o),
(504,88,o),
(504,208,cs),
(504,650,l),
(392,650,l),
(392,390,l),
(356,416,o),
(316,426,o),
(274,426,cs),
(156,426,o),
(56,328,o),
(56,208,cs),
(56,78,o),
(150,-10,o),
(280,-10,cs)
);
},
{
closed = 1;
nodes = (
(216,94,o),
(168,144,o),
(168,208,cs),
(168,274,o),
(216,322,o),
(280,322,cs),
(346,322,o),
(392,274,o),
(392,208,cs),
(392,144,o),
(346,94,o),
(280,94,cs)
);
},
{
closed = 0;
nodes = (
(432,55,l),
(457,25,o),
(494,2,o),
(538,0,cs),
(541,0,o),
(543,0,o),
(546,0,cs),
(548,0,l),
(548,105,l),
(545,105,o),
(541,106,o),
(538,107,cs),
(517,113,o),
(504,132,o),
(504,156,cs),
(504,416,l),
(394,416,l),
(394,380,l)
);
},
{
closed = 0;
nodes = (
(394,208,l)
);
}
);
width = 612;
},
{
layerId = m01;
shapes = (
{
closed = 1;
nodes = (
(392,-10,o),
(486,88,o),
(486,218,cs),
(486,650,l),
(344,650,l),
(344,400,l),
(322,417,o),
(297,426,o),
(252,426,cs),
(126,426,o),
(38,338,o),
(38,208,cs),
(38,88,o),
(142,-10,o),
(262,-10,cs)
);
},
{
closed = 1;
nodes = (
(219,136,o),
(188,171,o),
(188,213,cs),
(188,254,o),
(217,289,o),
(265,289,cs),
(306,289,o),
(339,258,o),
(339,213,cs),
(339,171,o),
(306,136,o),
(265,136,cs)
);
},
{
closed = 1;
nodes = (
(384,55,l),
(410,23,o),
(450,0,o),
(498,0,cs),
(512,0,l),
(512,134,l),
(508,134,ls),
(495,134,o),
(486,141,o),
(486,156,cs),
(486,416,l),
(346,416,l),
(346,380,l)
);
}
);
width = 556;
}
);
unicode = 100;
},
{
glyphname = e;
lastChange = "2025-07-23 23:10:12 +0000";
layers = (
{
layerId = m001;
shapes = (
{
closed = 1;
nodes = (
(349,-9,o),
(408,27,o),
(451,73,c),
(371,139,l),
(341,107,o),
(314,90,o),
(264,90,cs),
(210,90,o),
(167,122,o),
(154,173,c),
(463,173,l),
(464,188,o),
(464,189,o),
(464,216,cs),
(464,330,o),
(381,425,o),
(256,425,cs),
(130,425,o),
(44,332,o),
(44,209,cs),
(44,73,o),
(137,-9,o),
(263,-9,cs)
);
},
{
closed = 1;
nodes = (
(308,330,o),
(338,296,o),
(349,256,c),
(157,256,l),
(171,299,o),
(206,330,o),
(256,330,cs)
);
}
);
width = 509;
},
{
layerId = m01;
shapes = (
{
closed = 1;
nodes = (
(349,-9,o),
(408,27,o),
(451,73,c),
(326,151,l),
(306,130,o),
(289,119,o),
(256,119,cs),
(220,119,o),
(202,140,o),
(194,173,c),
(463,173,l),
(464,188,o),
(464,189,o),
(464,216,cs),
(464,330,o),
(381,425,o),
(256,425,cs),
(130,425,o),
(44,332,o),
(44,209,cs),
(44,73,o),
(137,-9,o),
(263,-9,cs)
);
},
{
closed = 1;
nodes = (
(295,320,o),
(307,296,o),
(315,266,c),
(194,266,l),
(204,297,o),
(220,320,o),
(256,320,cs)
);
}
);
userData = {
public.truetype.instructions = {
formatVersion = "1";
id = f2442038472d54d6dff73e29d00037df19e1072611230fe87cc1d627b4e4c0454433e124a7ffc2f6de768eac7e79d18521f6c1a693907d15e3c84440ee712a00;
};
};
width = 508;
}
);
unicode = 101;
},
{
glyphname = f;
lastChange = "2025-07-23 23:10:12 +0000";
layers = (
{
layerId = m001;
shapes = (
{
closed = 1;
nodes = (
(228,0,l),
(228,234,l),
(294,234,l),
(294,338,l),
(228,338,l),
(228,494,ls),
(228,535,o),
(252,546,o),
(300,546,cs),
(309,546,l),
(309,650,l),
(272,650,ls),
(181,650,o),
(116,585,o),
(116,494,cs),
(116,338,l),
(40,338,l),
(40,234,l),
(116,234,l),
(116,0,l)
);
}
);
width = 341;
},
{
layerId = m01;
shapes = (
{
closed = 1;
nodes = (
(195,0,l),
(195,282,l),
(261,282,l),
(261,416,l),
(195,416,l),
(195,537,ls),
(195,578,o),
(219,589,o),
(267,589,cs),
(276,589,l),
(276,728,l),
(239,728,ls),
(148,728,o),
(53,663,o),
(53,572,cs),
(53,416,l),
(-13,416,l),
(-13,282,l),
(53,282,l),
(53,0,l)
);
}
);
width = 263;
}
);
unicode = 102;
},
{
glyphname = g;
lastChange = "2025-07-23 23:10:12 +0000";
layers = (
{
layerId = m001;
shapes = (
{
closed = 1;
nodes = (
(504,261,ls),
(504,291,o),
(524,313,o),
(556,313,cs),
(560,313,l),
(560,417,l),
(546,417,ls),
(500,417,o),
(461,390,o),
(435,361,c),
(396,396,o),
(342,426,o),
(280,426,cs),
(160,426,o),
(56,328,o),
(56,208,cs),
(56,78,o),
(144,-10,o),
(270,-10,cs),
(322,-10,o),
(370,8,o),
(394,36,c),
(394,-32,ls),
(394,-86,o),
(360,-122,o),
(310,-122,cs),
(111,-122,l),
(111,-220,l),
(327,-220,ls),
(441,-220,o),
(504,-150,o),
(504,-44,cs)
);
},
{
closed = 1;
nodes = (
(216,94,o),
(168,144,o),
(168,208,cs),
(168,274,o),
(216,322,o),
(280,322,cs),
(346,322,o),
(392,274,o),
(392,208,cs),
(392,144,o),
(346,94,o),
(280,94,cs)
);
}
);
width = 624;
},
{
layerId = m01;
shapes = (
{
closed = 1;
nodes = (
(508,221,ls),
(508,251,o),
(508,273,o),
(540,273,cs),
(544,273,l),
(544,417,l),
(530,417,ls),
(484,417,o),
(445,390,o),
(419,361,c),
(380,396,o),
(326,426,o),
(264,426,cs),
(144,426,o),
(40,328,o),
(40,208,cs),
(40,78,o),
(128,-10,o),
(254,-10,cs),
(306,-10,o),
(344,-2,o),
(368,26,c),
(368,15,l),
(508,25,l)
);
},
{
closed = 1;
nodes = (
(508,-34,l),
(508,-113,o),
(396,-210,o),
(311,-210,q),
(95,-210,l),
(95,-72,l),
(294,-72,l),
(331,-72,o),
(367,-46,o),
(368,-32,q),
(368,15,l),
(508,25,l)
);
},
{
closed = 1;
nodes = (
(234,126,o),
(201,161,o),
(201,203,cs),
(201,248,o),
(234,279,o),
(275,279,cs),
(323,279,o),
(352,244,o),
(352,203,cs),
(352,161,o),
(321,126,o),
(275,126,cs)
);
}
);
width = 556;
}
);
unicode = 103;
},
{
glyphname = h;
lastChange = "2025-07-23 23:10:12 +0000";
layers = (
{
layerId = m001;
shapes = (
{
closed = 1;
nodes = (
(184,0,l),
(184,208,ls),
(184,274,o),
(232,322,o),
(296,322,cs),
(362,322,o),
(408,274,o),
(408,208,cs),
(408,0,l),
(520,0,l),
(520,208,ls),
(520,338,o),
(432,426,o),
(306,426,cs),
(254,426,o),
(208,408,o),
(184,380,c),
(184,650,l),
(72,650,l),
(72,0,l)
);
}
);
width = 584;
},
{
layerId = m01;
shapes = (
{
closed = 1;
nodes = (
(228,0,l),
(228,156,ls),
(228,202,o),
(251,235,o),
(295,235,cs),
(342,235,o),
(364,202,o),
(364,156,cs),
(364,0,l),
(520,0,l),
(520,208,ls),
(520,338,o),
(432,426,o),
(306,426,cs),
(254,426,o),
(233,418,o),
(204,400,c),
(204,728,l),
(62,728,l),
(62,0,l)
);
}
);
userData = {
public.truetype.instructions = {
formatVersion = "1";
id = b79ff194f92655e30223915571a308e7beca183c3d02cfdcfdc4738d89903ecab3be8fef2242f96a6e9a308c4e2412b7fbf7cf4780a856cd52c55b8953503bc8;
};
};
width = 584;
}
);
unicode = 104;
},
{
glyphname = i;
lastChange = "2025-07-23 23:10:12 +0000";
layers = (
{
layerId = m001;
shapes = (
{
closed = 1;
nodes = (
(166,500,o),
(196,532,o),
(196,570,cs),
(196,608,o),
(166,638,o),
(128,638,cs),
(90,638,o),
(58,608,o),
(58,570,cs),
(58,532,o),
(90,500,o),
(128,500,cs)
);
},
{
closed = 1;
nodes = (
(182,0,l),
(182,416,l),
(70,416,l),
(70,0,l)
);
}
);
width = 254;
},
{
layerId = m01;
shapes = (
{
closed = 1;
nodes = (
(174,500,o),
(214,542,o),
(214,590,cs),
(214,638,o),
(174,677,o),
(126,677,cs),
(79,677,o),
(37,638,o),
(37,590,cs),
(37,542,o),
(79,500,o),
(126,500,cs)
);
},
{
closed = 1;
nodes = (
(202,0,l),
(202,416,l),
(50,416,l),
(50,0,l)
);
}
);
width = 254;
}
);
unicode = 105;
},
{
glyphname = j;
lastChange = "2025-07-23 23:10:12 +0000";
layers = (
{
layerId = m001;
shapes = (
{
closed = 1;
nodes = (
(168,500,o),
(198,532,o),
(198,570,cs),
(198,608,o),
(168,638,o),
(130,638,cs),
(92,638,o),
(60,608,o),
(60,570,cs),
(60,532,o),
(92,500,o),
(130,500,cs)
);
},
{
closed = 1;
nodes = (
(28,-208,ls),
(118,-208,o),
(184,-144,o),
(184,-52,cs),
(184,416,l),
(72,416,l),
(72,-52,ls),
(72,-84,o),
(50,-104,o),
(20,-104,cs),
(-10,-104,l),
(-10,-208,l)
);
}
);
width = 256;
},
{
layerId = m01;
shapes = (
{
closed = 1;
nodes = (
(174,500,o),
(214,542,o),
(214,590,cs),
(214,638,o),
(174,677,o),
(126,677,cs),
(79,677,o),
(37,638,o),
(37,590,cs),
(37,542,o),
(79,500,o),
(126,500,cs)
);
},
{
closed = 1;
nodes = (
(-2,-208,ls),
(111,-208,o),
(202,-131,o),
(202,-52,cs),
(202,416,l),
(42,416,l),
(42,-12,ls),
(42,-44,o),
(20,-64,o),
(-10,-64,cs),
(-40,-64,l),
(-40,-208,l)
);
}
);
width = 226;
}
);
unicode = 106;
},
{
glyphname = k;
lastChange = "2025-07-23 23:10:12 +0000";
layers = (
{
layerId = m001;
shapes = (
{
closed = 1;
nodes = (
(180,0,l),
(180,146,l),
(214,175,l),
(368,0,l),
(494,0,l),
(285,237,l),
(492,416,l),
(364,416,l),
(180,260,l),
(180,650,l),
(68,650,l),
(68,0,l)
);
}
);
width = 514;
},
{
layerId = m01;
shapes = (
{
closed = 1;
nodes = (
(184,0,l),
(184,116,l),
(218,145,l),
(312,0,l),
(498,0,l),
(319,237,l),
(506,416,l),
(328,416,l),
(184,290,l),
(184,728,l),
(42,728,l),
(42,0,l)
);
}
);
width = 538;
}
);
unicode = 107;
},
{
glyphname = l;
lastChange = "2025-07-23 23:10:12 +0000";
layers = (
{
layerId = m001;
shapes = (
{
closed = 1;
nodes = (
(262,0,l),
(262,104,l),
(232,104,ls),
(200,104,o),
(180,126,o),
(180,156,cs),
(180,650,l),
(68,650,l),
(68,156,ls),
(68,66,o),
(132,0,o),
(224,0,cs)
);
}
);
width = 252;
},
{
layerId = m01;
shapes = (
{
closed = 1;
nodes = (
(262,0,l),
(262,144,l),
(232,144,ls),
(210,144,o),
(190,164,o),
(190,186,cs),
(190,728,l),
(38,728,l),
(38,156,ls),
(38,66,o),
(132,0,o),
(224,0,cs)
);
}
);
width = 248;
}
);
unicode = 108;
},
{
glyphname = m;
lastChange = "2025-07-23 23:10:12 +0000";
layers = (
{
layerId = m001;
shapes = (
{
closed = 1;
nodes = (
(228,0,l),
(228,208,ls),
(228,274,o),
(246,322,o),
(310,322,cs),
(376,322,o),
(402,274,o),
(402,208,cs),
(402,0,l),
(514,0,l),
(514,208,ls),
(514,274,o),
(540,322,o),
(606,322,cs),
(670,322,o),
(688,274,o),
(688,208,cs),
(688,0,l),
(800,0,l),
(800,208,ls),
(800,338,o),
(738,426,o),
(608,426,cs),
(546,426,o),
(504,400,o),
(462,356,c),
(422,400,o),
(384,426,o),
(312,426,cs),
(260,426,o),
(215,403,o),
(181,370,c),
(155,397,o),
(118,417,o),
(74,417,cs),
(60,417,l),
(60,313,l),
(64,313,ls),
(96,313,o),
(116,291,o),
(116,261,cs),
(116,0,l)
);
}
);
width = 866;
},
{
layerId = m01;
shapes = (
{
closed = 1;
nodes = (
(266,0,l),
(266,153,ls),
(266,198,o),
(278,233,o),
(322,233,cs),
(368,233,o),
(376,198,o),
(376,153,cs),
(376,0,l),
(534,0,l),
(534,153,ls),
(534,201,o),
(543,233,o),
(591,233,cs),
(638,233,o),
(641,201,o),
(641,153,cs),
(641,0,l),
(800,0,l),
(800,208,ls),
(800,338,o),
(738,426,o),
(608,426,cs),
(546,426,o),
(504,400,o),
(462,356,c),
(422,400,o),
(384,426,o),
(312,426,cs),
(260,426,o),
(215,403,o),
(181,370,c),
(155,397,o),
(118,417,o),
(74,417,cs),
(60,417,l),
(60,253,l),
(64,253,ls),
(96,253,o),
(116,231,o),
(116,201,cs),
(116,0,l)
);
}
);
width = 866;
}
);
unicode = 109;
},
{
glyphname = n;
lastChange = "2025-07-23 23:10:12 +0000";
layers = (
{
layerId = m001;
shapes = (
{
closed = 1;
nodes = (
(228,274,o),
(261,322,o),
(325,322,cs),
(391,322,o),
(422,274,o),
(422,208,cs),
(422,0,l),
(534,0,l),
(534,208,ls),
(534,338,o),
(457,426,o),
(327,426,cs),
(267,426,o),
(211,398,o),
(172,356,c),
(148,384,o),
(116,416,o),
(74,416,cs),
(60,416,l),
(60,312,l),
(64,312,ls),
(96,312,o),
(116,290,o),
(116,260,cs),
(116,0,l),
(228,0,l),
(228,208,ls)
);
}
);
width = 600;
},
{
layerId = m01;
shapes = (
{
closed = 1;
nodes = (
(268,189,o),
(280,222,o),
(324,222,cs),
(369,222,o),
(381,189,o),
(381,144,cs),
(381,0,l),
(534,0,l),
(534,208,ls),
(534,338,o),
(457,426,o),
(327,426,cs),
(267,426,o),
(211,398,o),
(172,356,c),
(148,384,o),
(116,416,o),
(74,416,cs),
(60,416,l),
(60,252,l),
(64,252,ls),
(96,252,o),
(116,230,o),
(116,200,cs),
(116,0,l),
(268,0,l),
(268,144,ls)
);
}
);
width = 610;
}
);
unicode = 110;
},
{
glyphname = o;
lastChange = "2025-07-23 23:10:12 +0000";
layers = (
{
layerId = m001;
shapes = (
{
closed = 1;
nodes = (
(388,-10,o),
(492,88,o),
(492,208,cs),
(492,338,o),
(398,426,o),
(268,426,cs),
(148,426,o),
(44,328,o),
(44,208,cs),
(44,78,o),
(138,-10,o),
(268,-10,cs)
);
},
{
closed = 1;
nodes = (
(202,91,o),
(153,142,o),
(153,208,cs),
(153,276,o),
(202,325,o),
(268,325,cs),
(336,325,o),
(383,276,o),
(383,208,cs),
(383,142,o),
(336,91,o),
(268,91,cs)
);
}
);
width = 536;
},
{
layerId = m01;
shapes = (
{
closed = 1;
nodes = (
(388,-10,o),
(492,88,o),
(492,208,cs),
(492,338,o),
(398,426,o),
(268,426,cs),
(148,426,o),
(44,328,o),
(44,208,cs),
(44,78,o),
(138,-10,o),
(268,-10,cs)
);
},
{
closed = 1;
nodes = (
(227,131,o),
(194,166,o),
(194,208,cs),
(194,253,o),
(227,284,o),
(268,284,cs),
(316,284,o),
(345,249,o),
(345,208,cs),
(345,166,o),
(314,131,o),
(268,131,cs)
);
}
);
width = 536;
}
);
unicode = 111;
},
{
glyphname = p;
lastChange = "2025-07-23 23:21:30 +0000";
layers = (
{
layerId = m001;
shapes = (
{
closed = 1;
nodes = (
(204,427,o),
(100,329,o),
(100,209,cs),
(100,-225,l),
(212,-225,l),
(212,27,l),
(248,1,o),
(288,-9,o),
(330,-9,cs),
(448,-9,o),
(548,89,o),
(548,209,cs),
(548,339,o),
(454,427,o),
(324,427,cs)
);
},
{
closed = 1;
nodes = (
(388,323,o),
(436,273,o),
(436,209,cs),
(436,143,o),
(388,95,o),
(324,95,cs),
(258,95,o),
(212,143,o),
(212,209,cs),
(212,273,o),
(258,323,o),
(324,323,cs)
);
},
{
closed = 0;
nodes = (
(172,362,l),
(147,392,o),
(110,415,o),
(66,417,cs),
(63,417,o),
(61,417,o),
(58,417,cs),
(56,417,l),
(56,312,l),
(59,312,o),
(63,311,o),
(66,310,cs),
(87,304,o),
(100,285,o),
(100,261,cs),
(100,1,l),
(210,1,l),
(210,37,l)
);
},
{
closed = 0;
nodes = (
(210,209,l)
);
}
);
width = 612;
},
{
layerId = m01;
shapes = (
{
closed = 1;
nodes = (
(158,426,o),
(64,328,o),
(64,198,cs),
(64,-225,l),
(206,-225,l),
(206,16,l),
(228,-1,o),
(253,-10,o),
(298,-10,cs),
(424,-10,o),
(512,78,o),
(512,208,cs),
(512,328,o),
(408,426,o),
(288,426,cs)
);
},
{
closed = 1;
nodes = (
(331,280,o),
(362,245,o),
(362,203,cs),
(362,162,o),
(333,127,o),
(285,127,cs),
(244,127,o),
(211,158,o),
(211,203,cs),
(211,245,o),
(244,280,o),
(285,280,cs)
);
},
{
closed = 1;
nodes = (
(166,361,l),
(140,393,o),
(100,416,o),
(52,416,cs),
(38,416,l),
(38,282,l),
(42,282,ls),
(55,282,o),
(64,275,o),
(64,260,cs),
(64,0,l),
(204,0,l),
(204,36,l)
);
}
);
width = 556;
}
);
unicode = 112;
},
{
glyphname = q;
lastChange = "2025-07-23 23:21:20 +0000";
layers = (
{
layerId = m001;
shapes = (
{
closed = 1;
nodes = (
(150,427,o),
(56,339,o),
(56,209,cs),
(56,89,o),
(156,-9,o),
(274,-9,cs),
(316,-9,o),
(356,1,o),
(392,27,c),
(392,-225,l),
(504,-225,l),
(504,209,ls),
(504,329,o),
(400,427,o),
(280,427,cs)
);
},
{
closed = 1;
nodes = (
(346,323,o),
(392,273,o),
(392,209,cs),
(392,143,o),
(346,95,o),
(280,95,cs),
(216,95,o),
(168,143,o),
(168,209,cs),
(168,273,o),
(216,323,o),
(280,323,cs)
);
},
{
closed = 0;
nodes = (
(394,37,l),
(394,1,l),
(504,1,l),
(504,261,ls),
(504,285,o),
(517,304,o),
(538,310,cs),
(541,311,o),
(545,312,o),
(548,312,c),
(548,417,l),
(546,417,ls),
(543,417,o),
(541,417,o),
(538,417,cs),
(494,415,o),
(457,392,o),
(432,362,c)
);
},
{
closed = 0;
nodes = (
(394,209,l)
);
}
);
width = 612;
},
{
layerId = m01;
shapes = (
{
closed = 1;
nodes = (
(142,426,o),
(38,328,o),
(38,208,cs),
(38,78,o),
(126,-10,o),
(252,-10,cs),
(297,-10,o),
(322,-1,o),
(344,16,c),
(344,-225,l),
(486,-225,l),
(486,198,ls),
(486,328,o),
(392,426,o),
(262,426,cs)
);
},
{
closed = 1;
nodes = (
(306,280,o),
(339,245,o),
(339,203,cs),
(339,158,o),
(306,127,o),
(265,127,cs),
(217,127,o),
(188,162,o),
(188,203,cs),
(188,245,o),
(219,280,o),
(265,280,cs)
);
},
{
closed = 1;
nodes = (
(346,36,l),
(346,0,l),
(486,0,l),
(486,260,ls),
(486,275,o),
(495,282,o),
(508,282,cs),
(512,282,l),
(512,416,l),
(498,416,ls),
(450,416,o),
(410,393,o),
(384,361,c)
);
}
);
width = 556;
}
);
unicode = 113;
},
{
glyphname = r;
lastChange = "2025-07-23 23:10:12 +0000";
layers = (
{
layerId = m001;
shapes = (
{
closed = 1;
nodes = (
(176,0,l),
(176,260,ls),
(176,292,o),
(198,312,o),
(228,312,cs),
(260,312,l),
(260,416,l),
(220,416,ls),
(130,416,o),
(64,352,o),
(64,260,cs),
(64,0,l)
);
}
);
width = 288;
},
{
layerId = m01;
shapes = (
{
closed = 1;
nodes = (
(176,0,l),
(176,210,ls),
(176,237,o),
(205,262,o),
(228,262,cs),
(260,262,l),
(260,416,l),
(220,416,ls),
(114,416,o),
(34,344,o),
(34,260,cs),
(34,0,l)
);
}
);
width = 288;
}
);
unicode = 114;
},
{
glyphname = s;
lastChange = "2025-07-23 23:10:12 +0000";
layers = (
{
layerId = m001;
shapes = (
{
closed = 1;
nodes = (
(264,0,ls),
(334,0,o),
(392,62,o),
(392,128,cs),
(392,202,o),
(334,256,o),
(264,256,cs),
(182,256,ls),
(162,256,o),
(148,270,o),
(148,290,cs),
(148,308,o),
(164,322,o),
(182,322,cs),
(340,322,l),
(340,416,l),
(172,416,ls),
(102,416,o),
(44,356,o),
(44,288,cs),
(44,216,o),
(102,160,o),
(172,160,cs),
(254,160,ls),
(274,160,o),
(288,146,o),
(288,128,cs),
(288,108,o),
(274,94,o),
(254,94,cs),
(56,94,l),
(56,0,l)
);
}
);
width = 424;
},
{
layerId = m01;
shapes = (
{
closed = 1;
nodes = (
(197,0,l),
(264,0,ls),
(334,0,o),
(392,82,o),
(392,148,cs),
(392,222,o),
(334,276,o),
(264,276,cs),
(247,276,l),
(232,276,ls),
(212,276,o),
(198,290,o),
(198,310,cs),
(198,328,o),
(214,342,o),
(232,342,cs),
(247,342,l),
(340,342,l),
(340,446,l),
(197,446,l),
(172,446,ls),
(102,446,o),
(44,376,o),
(44,308,cs),
(44,236,o),
(102,180,o),
(172,180,cs),
(177,180,l),
(184,180,ls),
(204,180,o),
(218,166,o),
(218,148,cs),
(218,128,o),
(204,114,o),
(184,114,cs),
(177,114,l),
(56,114,l),
(56,0,l)
);
}
);
userData = {
public.verticalOrigin = 800;
};
width = 456;
}
);
unicode = 115;
},
{
glyphname = t;
lastChange = "2025-07-23 23:10:12 +0000";
layers = (
{
layerId = m001;
shapes = (
{
closed = 1;
nodes = (
(324,0,l),
(324,94,l),
(294,94,ls),
(262,94,o),
(242,116,o),
(242,146,cs),
(242,338,l),
(347,338,l),
(347,425,l),
(242,425,l),
(242,650,l),
(130,650,l),
(130,425,l),
(40,425,l),
(40,338,l),
(130,338,l),
(130,146,ls),
(130,56,o),
(194,0,o),
(286,0,cs)
);
}
);
width = 377;
},
{
layerId = m01;
shapes = (
{
closed = 1;
nodes = (
(311,0,l),
(311,144,l),
(281,144,ls),
(249,144,o),
(229,166,o),
(229,196,cs),
(229,352,l),
(324,352,l),
(324,479,l),
(229,479,l),
(229,666,l),
(87,666,l),
(87,479,l),
(7,479,l),
(7,352,l),
(87,352,l),
(87,156,ls),
(87,66,o),
(181,0,o),
(273,0,cs)
);
}
);
width = 359;
}
);
unicode = 116;
},
{
glyphname = u;
lastChange = "2025-07-23 23:10:12 +0000";
layers = (
{
layerId = m001;
shapes = (
{
closed = 1;
nodes = (
(350,218,ls),
(350,152,o),
(327,104,o),
(263,104,cs),
(197,104,o),
(176,152,o),
(176,218,cs),
(176,416,l),
(64,416,l),
(64,218,ls),
(64,88,o),
(131,0,o),
(261,0,cs),
(316,0,o),
(365,21,o),
(401,57,c),
(427,29,o),
(462,0,o),
(504,0,cs),
(518,0,l),
(518,104,l),
(514,104,ls),
(482,104,o),
(462,136,o),
(462,166,cs),
(462,416,l),
(350,416,l)
);
}
);
width = 578;
},
{
layerId = m01;
shapes = (
{
closed = 1;
nodes = (
(339,267,ls),
(339,218,o),
(338,182,o),
(293,182,cs),
(249,182,o),
(248,218,o),
(248,267,cs),
(248,416,l),
(96,416,l),
(96,218,ls),
(96,88,o),
(163,0,o),
(293,0,cs),
(348,0,o),
(397,21,o),
(433,57,c),
(459,29,o),
(494,0,o),
(536,0,cs),
(550,0,l),
(550,134,l),
(546,134,ls),
(514,134,o),
(494,166,o),
(494,196,cs),
(494,416,l),
(339,416,l)
);
}
);
width = 610;
}
);
unicode = 117;
},
{
glyphname = v;
lastChange = "2025-07-23 23:10:12 +0000";
layers = (
{
layerId = m001;
shapes = (
{
closed = 1;
nodes = (
(290,0,l),
(458,416,l),
(346,416,l),
(234,114,l),
(122,416,l),
(10,416,l),
(178,0,l)
);
}
);
width = 468;
},
{
layerId = m01;
shapes = (
{
closed = 1;
nodes = (
(312,0,l),
(480,416,l),
(338,416,l),
(246,184,l),
(164,416,l),
(12,416,l),
(180,0,l)
);
}
);
width = 492;
}
);
unicode = 118;
},
{
glyphname = w;
lastChange = "2025-07-23 23:10:12 +0000";
layers = (
{
layerId = m001;
shapes = (
{
closed = 1;
nodes = (
(201,128,l),
(116,416,l),
(10,416,l),
(145,0,l),
(247,0,l),
(348,299,l),
(451,0,l),
(550,0,l),
(684,416,l),
(583,416,l),
(500,128,l),
(402,416,l),
(299,416,l)
);
}
);
width = 694;
},
{
layerId = m01;
shapes = (
{
closed = 1;
nodes = (
(417,406,l),
(512,208,l),
(565,416,l),
(706,416,l),
(572,0,l),
(453,0,l),
(360,229,l),
(269,0,l),
(147,0,l),
(12,416,l),
(158,416,l),
(213,208,l),
(308,406,l)
);
}
);
userData = {
public.truetype.instructions = {
formatVersion = "1";
id = "w814l351+487l471+487l586+150l683+487l801+487l645+0l529+0l408+350l290+0l171+0l13+487l137+487l236+150|";
};
};
width = 718;
}
);
unicode = 119;
},
{
glyphname = x;
lastChange = "2025-07-23 23:10:12 +0000";
layers = (
{
layerId = m001;
shapes = (
{
closed = 1;
nodes = (
(128,0,l),
(216,124,l),
(304,0,l),
(424,0,l),
(276,208,l),
(424,416,l),
(304,416,l),
(216,292,l),
(128,416,l),
(8,416,l),
(156,208,l),
(8,0,l)
);
}
);
width = 432;
},
{
layerId = m01;
shapes = (
{
closed = 1;
nodes = (
(152,0,l),
(220,94,l),
(288,0,l),
(448,0,l),
(300,208,l),
(448,416,l),
(288,416,l),
(220,322,l),
(152,416,l),
(-8,416,l),
(140,208,l),
(-8,0,l)
);
}
);
width = 440;
}
);
unicode = 120;
},
{
glyphname = y;
lastChange = "2025-07-23 23:10:12 +0000";
layers = (
{
layerId = m001;
shapes = (
{
closed = 1;
nodes = (
(316,181,ls),
(316,127,o),
(271,83,o),
(218,83,cs),
(163,83,o),
(119,127,o),
(119,181,cs),
(119,416,l),
(10,416,l),
(10,181,ls),
(10,66,o),
(112,-6,o),
(217,-6,cs),
(256,-6,o),
(302,17,o),
(326,40,c),
(326,-11,ls),
(326,-65,o),
(282,-122,o),
(232,-122,cs),
(33,-122,l),
(33,-220,l),
(249,-220,ls),
(363,-220,o),
(425,-130,o),
(425,-24,cs),
(425,416,l),
(316,416,l)
);
}
);
width = 435;
},
{
layerId = m01;
shapes = (
{
closed = 1;
nodes = (
(321,250,ls),
(321,211,o),
(288,178,o),
(249,178,cs),
(209,178,o),
(176,211,o),
(176,250,cs),
(176,416,l),
(36,416,l),
(36,191,ls),
(36,76,o),
(138,-6,o),
(243,-6,cs),
(282,-6,o),
(300,1,o),
(322,16,c),
(322,13,l),
(461,-4,l),
(461,416,l),
(321,416,l)
);
},
{
closed = 1;
nodes = (
(461,-34,l),
(455,-113,o),
(360,-210,o),
(275,-210,q),
(59,-210,l),
(59,-72,l),
(258,-72,l),
(297,-66,o),
(324,-22,o),
(322,15,q),
(322,13,l),
(461,-4,l)
);
}
);
width = 466;
}
);
unicode = 121;
},
{
glyphname = z;
lastChange = "2025-07-23 23:10:12 +0000";
layers = (
{
layerId = m001;
shapes = (
{
closed = 1;
nodes = (
(474,0,l),
(474,94,l),
(192,94,l),
(464,326,l),
(464,416,l),
(54,416,l),
(54,322,l),
(320,322,l),
(48,92,l),
(48,0,l)
);
}
);
width = 496;
},
{
layerId = m01;
shapes = (
{
closed = 1;
nodes = (
(464,0,l),
(464,114,l),
(222,114,l),
(454,306,l),
(454,426,l),
(44,426,l),
(44,302,l),
(270,302,l),
(38,112,l),
(38,0,l)
);
}
);
width = 502;
}
);
unicode = 122;
},
{
glyphname = braceleft;
lastChange = "2025-07-23 23:10:46 +0000";
layers = (
{
layerId = m001;
shapes = (
{
closed = 1;
nodes = (
(381,-208,l),
(381,-104,l),
(316,-104,o),
(269,-54,o),
(269,11,cs),
(269,198,ls),
(269,268,o),
(240,328,o),
(191,367,c),
(238,407,o),
(269,466,o),
(269,530,cs),
(269,719,ls),
(269,784,o),
(315,832,o),
(380,832,c),
(380,936,l),
(376,936,ls),
(256,936,o),
(152,837,o),
(152,718,cs),
(152,530,ls),
(152,465,o),
(105,416,o),
(40,416,c),
(40,312,l),
(105,312,o),
(152,263,o),
(152,198,cs),
(152,11,ls),
(152,-115,o),
(246,-208,o),
(376,-208,cs)
);
}
);
width = 397;
},
{
layerId = m01;
width = 600;
}
);
unicode = 123;
},
{
glyphname = braceright;
lastChange = "2025-07-23 23:10:46 +0000";
layers = (
{
layerId = m001;
shapes = (
{
closed = 1;
nodes = (
(21,-208,ls),
(141,-208,o),
(245,-109,o),
(245,10,cs),
(245,198,ls),
(245,263,o),
(292,312,o),
(357,312,c),
(357,416,l),
(292,416,o),
(245,465,o),
(245,530,cs),
(245,717,ls),
(245,843,o),
(151,936,o),
(21,936,cs),
(16,936,l),
(16,832,l),
(81,832,o),
(128,782,o),
(128,713,cs),
(128,530,ls),
(128,460,o),
(157,400,o),
(206,361,c),
(159,321,o),
(128,262,o),
(128,198,cs),
(128,13,ls),
(128,-56,o),
(82,-104,o),
(17,-104,c),
(17,-208,l)
);
}
);
width = 397;
},
{
layerId = m01;
width = 600;
}
);
unicode = 125;
},
{
glyphname = exclamdown;
lastChange = "2025-07-23 23:10:46 +0000";
layers = (
{
layerId = m001;
shapes = (
{
closed = 1;
nodes = (
(103,538,o),
(72,507,o),
(72,469,cs),
(72,431,o),
(103,400,o),
(141,400,cs),
(179,400,o),
(210,431,o),
(210,469,cs),
(210,507,o),
(179,538,o),
(141,538,cs)
);
},
{
closed = 1;
nodes = (
(83,-200,l),
(199,-200,l),
(199,320,l),
(83,320,l)
);
}
);
width = 282;
},
{
layerId = m01;
width = 600;
}
);
unicode = 161;
},
{
glyphname = cent;
lastChange = "2025-07-23 23:10:46 +0000";
layers = (
{
layerId = m001;
shapes = (
{
closed = 1;
nodes = (
(680,595,l),
(554,571,o),
(475,474,o),
(475,350,cs),
(475,227,o),
(554,129,o),
(680,105,c),
(680,0,l),
(777,0,l),
(777,101,l),
(836,108,o),
(890,133,o),
(929,175,c),
(870,244,l),
(844,222,o),
(812,205,o),
(777,197,c),
(777,503,l),
(810,496,o),
(839,480,o),
(867,457,c),
(929,525,l),
(891,567,o),
(837,592,o),
(777,599,c),
(777,700,l),
(680,700,l)
);
},
{
closed = 1;
nodes = (
(579,421,o),
(619,475,o),
(680,497,c),
(680,204,l),
(619,225,o),
(579,280,o),
(579,350,cs)
);
}
);
width = 1400;
},
{
layerId = m01;
width = 600;
}
);
unicode = 162;
},
{
glyphname = sterling;
lastChange = "2025-07-23 23:10:46 +0000";
layers = (
{
layerId = m001;
shapes = (
{
closed = 1;
nodes = (
(628,103,l),
(628,303,l),
(878,303,l),
(878,398,l),
(628,398,l),
(628,430,ls),
(628,556,o),
(689,609,o),
(771,609,cs),
(817,609,o),
(857,594,o),
(886,563,c),
(959,640,l),
(912,688,o),
(845,712,o),
(771,712,cs),
(634,712,o),
(520,622,o),
(520,438,cs),
(520,398,l),
(437,398,l),
(437,303,l),
(520,303,l),
(520,103,l),
(437,103,l),
(437,0,l),
(964,0,l),
(964,103,l)
);
}
);
width = 1400;
},
{
layerId = m01;
width = 600;
}
);
unicode = 163;
},
{
glyphname = yen;
lastChange = "2025-07-23 23:10:46 +0000";
layers = (
{
layerId = m001;
shapes = (
{
closed = 1;
nodes = (
(758,227,l),
(758,305,l),
(945,305,l),
(945,391,l),
(799,391,l),
(1007,700,l),
(880,700,l),
(704,424,l),
(523,700,l),
(394,700,l),
(606,391,l),
(462,391,l),
(462,305,l),
(650,305,l),
(650,227,l),
(462,227,l),
(462,140,l),
(650,140,l),
(650,0,l),
(758,0,l),
(758,140,l),
(945,140,l),
(945,227,l)
);
}
);
width = 1400;
},
{
layerId = m01;
width = 600;
}
);
unicode = 165;
},
{
glyphname = quotesingle;
lastChange = "2025-07-23 23:10:46 +0000";
layers = (
{
layerId = m001;
shapes = (
{
closed = 1;
nodes = (
(88,476,l),
(163,476,l),
(189,720,l),
(61,720,l)
);
}
);
width = 251;
},
{
layerId = m01;
width = 600;
}
);
unicode = 39;
},
{
glyphname = quotedblleft;
lastChange = "2025-07-23 23:10:46 +0000";
layers = (
{
layerId = m001;
shapes = (
{
closed = 1;
nodes = (
(151,606,o),
(169,626,o),
(197,626,cs),
(215,626,l),
(215,721,l),
(168,721,ls),
(89,721,o),
(35,665,o),
(35,582,cs),
(35,455,l),
(151,455,l),
(151,572,ls)
);
},
{
closed = 1;
nodes = (
(367,606,o),
(385,626,o),
(412,626,cs),
(430,626,l),
(430,721,l),
(383,721,ls),
(304,721,o),
(251,665,o),
(251,582,cs),
(251,455,l),
(367,455,l),
(367,572,ls)
);
}
);
width = 486;
},
{
layerId = m01;
width = 600;
}
);
unicode = 8220;
},
{
glyphname = endash;
lastChange = "2025-07-23 23:10:46 +0000";
layers = (
{
layerId = m001;
shapes = (
{
closed = 1;
nodes = (
(552,208,l),
(552,312,l),
(64,312,l),
(64,208,l)
);
}
);
width = 616;
},
{
layerId = m01;
width = 600;
}
);
unicode = 8211;
},
{
glyphname = periodcentered;
lastChange = "2025-07-23 23:10:46 +0000";
layers = (
{
layerId = m001;
shapes = (
{
closed = 1;
nodes = (
(65,276,o),
(73,258,o),
(88,243,cs),
(103,228,o),
(121,221,o),
(143,221,cs),
(165,221,o),
(184,228,o),
(199,243,cs),
(214,258,o),
(222,276,o),
(222,298,cs),
(222,341,o),
(187,376,o),
(143,376,cs),
(100,376,o),
(65,341,o),
(65,298,cs)
);
}
);
width = 284;
},
{
layerId = m01;
width = 600;
}
);
unicode = 183;
},
{
glyphname = bullet;
lastChange = "2025-07-23 23:10:46 +0000";
layers = (
{
layerId = m001;
shapes = (
{
closed = 1;
nodes = (
(40,200,o),
(86,153,o),
(152,153,cs),
(184,153,o),
(211,164,o),
(232,185,cs),
(253,206,o),
(264,233,o),
(264,266,cs),
(264,299,o),
(253,326,o),
(232,347,cs),
(211,368,o),
(184,378,o),
(152,378,cs),
(86,378,o),
(40,332,o),
(40,266,cs)
);
}
);
width = 304;
},
{
layerId = m01;
width = 600;
}
);
unicode = 8226;
},
{
glyphname = quotesinglbase;
lastChange = "2025-07-23 23:10:46 +0000";
layers = (
{
layerId = m001;
shapes = (
{
closed = 1;
nodes = (
(99,-42,o),
(81,-63,o),
(53,-63,cs),
(35,-63,l),
(35,-158,l),
(83,-158,ls),
(162,-158,o),
(215,-102,o),
(215,-19,cs),
(215,108,l),
(99,108,l),
(99,-9,ls)
);
}
);
width = 270;
},
{
layerId = m01;
width = 600;
}
);
unicode = 8218;
},
{
glyphname = quotedblbase;
lastChange = "2025-07-23 23:10:46 +0000";
layers = (
{
layerId = m001;
shapes = (
{
closed = 1;
nodes = (
(99,-52,o),
(81,-73,o),
(53,-73,cs),
(35,-73,l),
(35,-168,l),
(83,-168,ls),
(162,-168,o),
(215,-112,o),
(215,-29,cs),
(215,98,l),
(99,98,l),
(99,-19,ls)
);
},
{
closed = 1;
nodes = (
(315,-52,o),
(297,-73,o),
(269,-73,cs),
(251,-73,l),
(251,-168,l),
(299,-168,ls),
(378,-168,o),
(431,-112,o),
(431,-29,cs),
(431,98,l),
(315,98,l),
(315,-19,ls)
);
}
);
width = 486;
},
{
layerId = m01;
width = 600;
}
);
unicode = 8222;
},
{
glyphname = quotedblright;
lastChange = "2025-07-23 23:10:46 +0000";
layers = (
{
layerId = m001;
shapes = (
{
closed = 1;
nodes = (
(99,570,o),
(81,549,o),
(53,549,cs),
(35,549,l),
(35,454,l),
(83,454,ls),
(162,454,o),
(215,510,o),
(215,593,cs),
(215,720,l),
(99,720,l),
(99,603,ls)
);
},
{
closed = 1;
nodes = (
(315,570,o),
(297,549,o),
(269,549,cs),
(251,549,l),
(251,454,l),
(299,454,ls),
(378,454,o),
(431,510,o),
(431,593,cs),
(431,720,l),
(315,720,l),
(315,603,ls)
);
}
);
width = 486;
},
{
layerId = m01;
width = 600;
}
);
unicode = 8221;
},
{
glyphname = ellipsis;
lastChange = "2025-07-23 23:10:46 +0000";
layers = (
{
layerId = m001;
shapes = (
{
closed = 1;
nodes = (
(75,33,o),
(67,52,o),
(67,75,cs),
(67,98,o),
(75,117,o),
(91,133,cs),
(106,149,o),
(125,157,o),
(148,157,cs),
(171,157,o),
(190,149,o),
(206,133,cs),
(222,117,o),
(230,98,o),
(230,75,cs),
(230,52,o),
(222,33,o),
(206,18,cs),
(190,2,o),
(171,-6,o),
(148,-6,cs),
(125,-6,o),
(106,2,o),
(91,18,c)
);
},
{
closed = 1;
nodes = (
(75,33,o),
(67,52,o),
(67,75,cs),
(67,98,o),
(75,117,o),
(91,133,cs),
(106,149,o),
(125,157,o),
(148,157,cs),
(171,157,o),
(190,149,o),
(206,133,cs),
(222,117,o),
(230,98,o),
(230,75,cs),
(230,52,o),
(222,33,o),
(206,18,cs),
(190,2,o),
(171,-6,o),
(148,-6,cs),
(125,-6,o),
(106,2,o),
(91,18,c)
);
},
{
closed = 1;
nodes = (
(75,33,o),
(67,52,o),
(67,75,cs),
(67,98,o),
(75,117,o),
(91,133,cs),
(106,149,o),
(125,157,o),
(148,157,cs),
(171,157,o),
(190,149,o),
(206,133,cs),
(222,117,o),
(230,98,o),
(230,75,cs),
(230,52,o),
(222,33,o),
(206,18,cs),
(190,2,o),
(171,-6,o),
(148,-6,cs),
(125,-6,o),
(106,2,o),
(91,18,c)
);
}
);
width = 296;
},
{
layerId = m01;
width = 600;
}
);
unicode = 8230;
},
{
glyphname = questiondown;
lastChange = "2025-07-23 23:10:46 +0000";
layers = (
{
layerId = m001;
shapes = (
{
closed = 1;
nodes = (
(371,392,o),
(402,423,o),
(402,461,cs),
(402,499,o),
(371,530,o),
(333,530,cs),
(295,530,o),
(264,499,o),
(264,461,cs),
(264,423,o),
(295,392,o),
(333,392,cs)
);
},
{
closed = 1;
nodes = (
(418,-218,o),
(514,-125,o),
(514,0,c),
(397,0,l),
(397,-66,o),
(350,-114,o),
(285,-114,cs),
(220,-114,o),
(173,-66,o),
(173,0,cs),
(173,65,o),
(215,114,o),
(285,114,cs),
(393,114,l),
(393,312,l),
(277,312,l),
(277,218,l),
(146,214,o),
(56,121,o),
(56,0,cs),
(56,-130,o),
(150,-218,o),
(285,-218,cs)
);
}
);
width = 570;
},
{
layerId = m01;
width = 600;
}
);
unicode = 191;
},
{
glyphname = emdash;
lastChange = "2025-07-23 23:10:46 +0000";
layers = (
{
layerId = m001;
shapes = (
{
closed = 1;
nodes = (
(936,208,l),
(936,312,l),
(64,312,l),
(64,208,l)
);
}
);
width = 1000;
},
{
layerId = m01;
width = 600;
}
);
unicode = 8212;
},
{
glyphname = M.alt;
lastChange = "2025-07-23 23:10:46 +0000";
layers = (
{
layerId = m001;
shapes = (
{
closed = 1;
nodes = (
(865,709,l),
(702,709,l),
(475,168,l),
(245,709,l),
(85,709,l),
(85,0,l),
(202,0,l),
(202,520,l),
(421,0,l),
(525,0,l),
(746,522,l),
(746,0,l),
(865,0,l)
);
}
);
width = 950;
},
{
layerId = m01;
width = 600;
}
);
},
{
glyphname = Q.alt;
lastChange = "2025-07-23 23:10:46 +0000";
layers = (
{
layerId = m001;
shapes = (
{
closed = 1;
nodes = (
(507,-170,l),
(507,-15,l),
(691,19,o),
(820,178,o),
(820,349,cs),
(820,541,o),
(679,720,o),
(452,720,cs),
(223,720,o),
(82,541,o),
(82,349,cs),
(82,178,o),
(213,19,o),
(396,-15,c),
(396,-170,l)
);
},
{
closed = 1;
nodes = (
(311,94,o),
(205,203,o),
(205,349,cs),
(205,495,o),
(311,604,o),
(452,604,cs),
(592,604,o),
(697,495,o),
(697,349,cs),
(697,203,o),
(592,94,o),
(452,94,cs)
);
}
);
width = 897;
},
{
layerId = m01;
width = 600;
}
);
},
{
glyphname = S.alt;
lastChange = "2025-07-23 23:10:46 +0000";
layers = (
{
layerId = m001;
shapes = (
{
closed = 1;
nodes = (
(404,0,ls),
(524,0,o),
(606,98,o),
(606,203,cs),
(606,320,o),
(524,405,o),
(404,405,cs),
(249,405,ls),
(188,405,o),
(147,446,o),
(147,506,cs),
(147,567,o),
(188,607,o),
(249,607,cs),
(546,607,l),
(546,709,l),
(237,709,ls),
(116,709,o),
(34,613,o),
(34,506,cs),
(34,389,o),
(116,304,o),
(237,304,cs),
(392,304,ls),
(452,304,o),
(493,263,o),
(493,203,cs),
(493,142,o),
(452,101,o),
(392,101,cs),
(46,101,l),
(46,0,l)
);
}
);
width = 662;
},
{
layerId = m01;
width = 600;
}
);
},
{
glyphname = V.alt;
lastChange = "2025-07-23 23:10:46 +0000";
layers = (
{
layerId = m001;
shapes = (
{
closed = 1;
nodes = (
(359,-7,o),
(384,30,o),
(398,75,cs),
(604,707,l),
(493,707,l),
(311,121,l),
(129,707,l),
(18,707,l),
(224,75,ls),
(238,30,o),
(263,-7,o),
(311,-7,cs)
);
}
);
width = 622;
},
{
layerId = m01;
width = 600;
}
);
},
{
glyphname = W.alt;
lastChange = "2025-07-23 23:10:46 +0000";
layers = (
{
layerId = m001;
shapes = (
{
closed = 1;
nodes = (
(342,-7,o),
(365,23,o),
(381,74,cs),
(540,580,l),
(700,74,ls),
(716,23,o),
(739,-7,o),
(788,-7,cs),
(836,-7,o),
(861,25,o),
(876,74,cs),
(1068,707,l),
(952,707,l),
(787,126,l),
(627,636,ls),
(612,684,o),
(582,710,o),
(541,710,cs),
(500,710,o),
(470,684,o),
(455,636,cs),
(294,126,l),
(129,707,l),
(13,707,l),
(205,74,ls),
(220,25,o),
(245,-7,o),
(293,-7,cs)
);
}
);
width = 1081;
},
{
layerId = m01;
width = 600;
}
);
},
{
glyphname = a.alt;
lastChange = "2025-07-23 23:10:46 +0000";
layers = (
{
layerId = m001;
shapes = (
{
closed = 1;
nodes = (
(733,467,l),
(733,409,l),
(700,451,o),
(650,479,o),
(582,479,cs),
(448,479,o),
(343,374,o),
(343,227,cs),
(343,81,o),
(448,-25,o),
(582,-25,cs),
(650,-25,o),
(700,3,o),
(733,45,c),
(733,-12,l),
(837,-12,l),
(837,467,l)
);
},
{
closed = 1;
nodes = (
(681,381,o),
(739,315,o),
(739,227,cs),
(739,140,o),
(681,74,o),
(595,74,cs),
(505,74,o),
(450,143,o),
(450,227,cs),
(450,311,o),
(505,381,o),
(595,381,cs)
);
}
);
width = 1248;
},
{
layerId = m01;
width = 600;
}
);
},
{
glyphname = e.alt;
lastChange = "2025-07-23 23:10:46 +0000";
layers = (
{
layerId = m001;
shapes = (
{
closed = 1;
nodes = (
(322,-10,o),
(380,16,o),
(422,56,c),
(354,126,l),
(334,104,o),
(302,88,o),
(268,88,cs),
(254,88,o),
(238,92,o),
(222,102,c),
(450,334,l),
(438,356,o),
(378,426,o),
(262,426,cs),
(138,426,o),
(44,334,o),
(44,208,cs),
(44,78,o),
(152,-10,o),
(262,-10,cs)
);
},
{
closed = 1;
nodes = (
(150,180,o),
(146,196,o),
(146,212,c),
(140,278,o),
(196,330,o),
(260,330,cs),
(274,330,o),
(296,326,o),
(308,318,c),
(158,166,l)
);
}
);
width = 494;
},
{
layerId = m01;
width = 600;
}
);
},
{
glyphname = g.alt;
lastChange = "2025-07-23 23:10:46 +0000";
layers = (
{
layerId = m001;
shapes = (
{
closed = 1;
nodes = (
(384,-218,o),
(488,-130,o),
(488,0,cs),
(488,261,ls),
(488,291,o),
(508,313,o),
(540,313,cs),
(544,313,l),
(544,417,l),
(530,417,ls),
(484,417,o),
(445,390,o),
(419,361,c),
(380,396,o),
(326,426,o),
(264,426,cs),
(144,426,o),
(40,328,o),
(40,208,cs),
(40,78,o),
(128,-10,o),
(254,-10,cs),
(306,-10,o),
(354,8,o),
(378,36,c),
(378,0,ls),
(378,-68,o),
(332,-120,o),
(264,-120,cs),
(196,-120,o),
(150,-72,o),
(150,-4,c),
(44,-4,l),
(44,-136,o),
(132,-218,o),
(264,-218,cs)
);
},
{
closed = 1;
nodes = (
(200,94,o),
(152,144,o),
(152,208,cs),
(152,274,o),
(200,322,o),
(264,322,cs),
(330,322,o),
(376,274,o),
(376,208,cs),
(376,144,o),
(330,94,o),
(264,94,cs)
);
}
);
width = 556;
},
{
layerId = m01;
width = 600;
}
);
},
{
glyphname = k.alt;
lastChange = "2025-07-23 23:10:46 +0000";
layers = (
{
layerId = m001;
shapes = (
{
closed = 1;
nodes = (
(75,728,l),
(75,0,l),
(173,0,l),
(173,-1,l),
(174,-1,l),
(174,0,l),
(175,0,l),
(175,128,l),
(177,141,o),
(185,152,o),
(197,159,cs),
(213,168,o),
(250,168,o),
(265,159,c),
(280,151,o),
(288,136,o),
(288,119,cs),
(288,0,l),
(388,0,l),
(388,119,ls),
(388,154,o),
(372,189,o),
(347,215,c),
(365,242,o),
(374,279,o),
(374,307,cs),
(374,384,l),
(274,384,l),
(274,307,ls),
(274,275,o),
(272,265,o),
(242,265,cs),
(175,265,l),
(174,728,l)
);
}
);
width = 487;
},
{
layerId = m01;
width = 600;
}
);
},
{
glyphname = s.alt;
lastChange = "2025-07-23 23:10:46 +0000";
layers = (
{
layerId = m001;
shapes = (
{
closed = 1;
nodes = (
(264,0,ls),
(334,0,o),
(392,62,o),
(392,128,cs),
(392,202,o),
(334,256,o),
(264,256,cs),
(182,256,ls),
(162,256,o),
(148,270,o),
(148,290,cs),
(148,308,o),
(164,322,o),
(182,322,cs),
(340,322,l),
(340,416,l),
(172,416,ls),
(102,416,o),
(44,356,o),
(44,288,cs),
(44,216,o),
(102,160,o),
(172,160,cs),
(254,160,ls),
(274,160,o),
(288,146,o),
(288,128,cs),
(288,108,o),
(274,94,o),
(254,94,cs),
(56,94,l),
(56,0,l)
);
}
);
width = 456;
},
{
layerId = m01;
width = 600;
}
);
},
{
glyphname = w.alt;
lastChange = "2025-07-23 23:10:46 +0000";
layers = (
{
layerId = m001;
shapes = (
{
closed = 1;
nodes = (
(632,426,l),
(632,218,ls),
(632,152,o),
(614,104,o),
(550,104,cs),
(484,104,o),
(458,152,o),
(458,218,cs),
(458,426,l),
(346,426,l),
(346,218,ls),
(346,152,o),
(320,104,o),
(254,104,cs),
(190,104,o),
(172,152,o),
(172,218,cs),
(172,426,l),
(60,426,l),
(60,218,ls),
(60,88,o),
(122,0,o),
(252,0,cs),
(314,0,o),
(356,26,o),
(398,70,c),
(438,26,o),
(476,0,o),
(548,0,cs),
(600,0,o),
(645,18,o),
(679,51,c),
(705,24,o),
(742,9,o),
(786,9,cs),
(800,9,l),
(800,113,l),
(796,113,ls),
(764,113,o),
(744,135,o),
(744,165,cs),
(744,426,l)
);
}
);
width = 866;
},
{
layerId = m01;
width = 600;
}
);
},
{
glyphname = y.alt;
lastChange = "2025-07-23 23:10:46 +0000";
layers = (
{
layerId = m001;
shapes = (
{
closed = 1;
nodes = (
(348,-245,o),
(451,-158,o),
(452,-28,cs),
(452,-25,l),
(451,-25,l),
(451,416,l),
(342,416,l),
(342,171,ls),
(342,117,o),
(297,73,o),
(244,73,cs),
(189,73,o),
(145,117,o),
(145,171,cs),
(145,416,l),
(36,416,l),
(36,171,ls),
(36,56,o),
(138,-26,o),
(243,-26,cs),
(282,-26,o),
(318,-24,o),
(342,-1,c),
(342,-27,l),
(341,-28,l),
(342,-28,l),
(341,-96,o),
(296,-147,o),
(228,-147,cs),
(160,-147,o),
(114,-99,o),
(114,-31,c),
(8,-31,l),
(8,-163,o),
(96,-245,o),
(228,-245,cs)
);
}
);
width = 466;
},
{
layerId = m01;
width = 600;
}
);
},
{
glyphname = k.alt2;
lastChange = "2025-07-23 23:10:46 +0000";
layers = (
{
layerId = m001;
shapes = (
{
closed = 1;
nodes = (
(184,0,l),
(184,156,l),
(262,156,ls),
(282,156,o),
(302,160,o),
(320,164,c),
(384,0,l),
(496,0,l),
(412,214,l),
(458,254,o),
(486,312,o),
(486,374,cs),
(486,416,l),
(378,416,l),
(376,374,ls),
(372,310,o),
(328,260,o),
(262,260,cs),
(184,260,l),
(184,728,l),
(72,728,l),
(72,0,l)
);
}
);
width = 538;
},
{
layerId = m01;
width = 600;
}
);
},
{
glyphname = "a-bopomofo";
lastChange = "2025-07-23 23:10:46 +0000";
layers = (
{
layerId = m001;
shapes = (
{
closed = 1;
nodes = (
(536,21,l),
(536,421,l),
(624,495,o),
(730,592,o),
(820,686,c),
(748,743,l),
(676,661,o),
(579,573,o),
(497,502,c),
(480,519,o),
(456,541,o),
(427,568,cs),
(397,595,o),
(364,624,o),
(329,656,cs),
(294,687,o),
(259,718,o),
(224,748,c),
(165,686,l),
(198,656,o),
(232,625,o),
(266,593,cs),
(300,560,o),
(333,529,o),
(364,498,cs),
(395,467,o),
(422,439,o),
(445,413,c),
(445,21,l)
);
}
);
width = 1000;
},
{
layerId = m01;
width = 600;
}
);
unicode = 12570;
},
{
glyphname = "ai-bopomofo";
lastChange = "2025-07-23 23:21:07 +0000";
layers = (
{
layerId = m001;
shapes = (
{
closed = 1;
nodes = (
(731,-39,l),
(750,10,o),
(771,72,o),
(792,146,cs),
(813,219,o),
(829,284,o),
(840,339,cs),
(851,393,o),
(823,424,o),
(769,424,cs),
(524,424,l),
(545,499,o),
(561,582,o),
(570,673,c),
(844,673,l),
(844,757,l),
(105,757,l),
(105,673,l),
(485,673,l),
(476,579,o),
(461,498,o),
(438,424,c),
(267,424,ls),
(246,424,o),
(225,437,o),
(234,458,c),
(292,625,l),
(208,642,l),
(202,621,o),
(192,589,o),
(178,547,cs),
(164,505,o),
(151,468,o),
(140,437,cs),
(121,381,o),
(155,344,o),
(213,344,cs),
(409,344,l),
(355,217,o),
(275,128,o),
(152,64,c),
(196,-10,l),
(345,70,o),
(438,182,o),
(498,344,c),
(711,344,ls),
(722,344,o),
(729,341,o),
(734,336,c),
(738,331,o),
(739,323,o),
(738,313,c),
(731,267,o),
(718,212,o),
(700,149,cs),
(681,86,o),
(665,34,o),
(650,-5,c)
);
}
);
width = 1000;
},
{
layerId = m01;
width = 600;
}
);
unicode = 12574;
},
{
glyphname = "an-bopomofo";
lastChange = "2025-07-23 23:21:07 +0000";
layers = (
{
layerId = m001;
shapes = (
{
closed = 1;
nodes = (
(699,-46,l),
(722,-5,o),
(749,51,o),
(780,120,cs),
(810,189,o),
(832,251,o),
(847,306,cs),
(862,360,o),
(833,392,o),
(778,392,cs),
(645,392,l),
(673,476,o),
(702,571,o),
(723,657,cs),
(738,712,o),
(710,743,o),
(655,743,cs),
(151,743,l),
(151,663,l),
(601,663,ls),
(622,663,o),
(632,650,o),
(627,631,cs),
(606,555,o),
(580,467,o),
(555,392,c),
(317,392,ls),
(296,392,o),
(286,406,o),
(295,426,cs),
(304,447,o),
(317,478,o),
(333,517,cs),
(348,556,o),
(360,587,o),
(368,610,c),
(282,633,l),
(269,598,o),
(253,559,o),
(236,515,cs),
(219,471,o),
(203,434,o),
(190,405,cs),
(167,350,o),
(186,312,o),
(246,312,cs),
(722,312,ls),
(742,312,o),
(753,300,o),
(746,279,cs),
(734,239,o),
(715,190,o),
(689,132,cs),
(662,73,o),
(640,26,o),
(623,-10,c)
);
}
);
width = 1000;
},
{
layerId = m01;
width = 600;
}
);
unicode = 12578;
},
{
glyphname = "ang-bopomofo";
lastChange = "2025-07-23 23:21:07 +0000";
layers = (
{
layerId = m001;
shapes = (
{
closed = 1;
nodes = (
(473,374,o),
(476,383,o),
(477,390,c),
(477,127,ls),
(477,92,o),
(481,64,o),
(489,44,cs),
(497,23,o),
(511,9,o),
(531,1,cs),
(551,-8,o),
(579,-12,o),
(615,-12,cs),
(717,-12,o),
(767,-11,o),
(811,-11,cs),
(872,-11,l),
(872,70,l),
(847,70,ls),
(824,70,o),
(798,69,o),
(738,69,cs),
(613,69,ls),
(577,69,o),
(565,82,o),
(565,124,cs),
(565,387,ls),
(565,425,o),
(556,443,o),
(520,443,cs),
(505,443,o),
(494,438,o),
(487,428,c),
(494,460,o),
(497,485,o),
(501,528,c),
(864,528,l),
(864,610,l),
(506,610,l),
(506,778,l),
(421,778,l),
(421,610,l),
(106,610,l),
(106,528,l),
(416,528,l),
(412,488,o),
(405,447,o),
(394,406,cs),
(383,365,o),
(366,324,o),
(344,284,cs),
(321,243,o),
(291,204,o),
(254,167,cs),
(217,129,o),
(169,93,o),
(112,60,c),
(157,-16,l),
(316,78,o),
(422,202,o),
(470,365,cs)
);
}
);
width = 1000;
},
{
layerId = m01;
width = 600;
}
);
unicode = 12580;
},
{
glyphname = "au-bopomofo";
lastChange = "2025-07-23 23:21:07 +0000";
layers = (
{
layerId = m001;
shapes = (
{
closed = 1;
nodes = (
(892,21,l),
(710,319,l),
(637,284,l),
(684,200,o),
(710,155,o),
(715,149,c),
(650,140,o),
(583,131,o),
(514,122,cs),
(444,113,o),
(378,104,o),
(315,96,c),
(385,155,o),
(458,225,o),
(535,306,cs),
(611,386,o),
(681,466,o),
(746,547,c),
(674,601,l),
(641,555,o),
(586,492,o),
(550,449,c),
(285,426,l),
(369,510,o),
(454,607,o),
(521,709,c),
(446,755,l),
(419,714,o),
(391,674,o),
(362,635,cs),
(333,596,o),
(306,563,o),
(283,535,cs),
(259,506,o),
(241,487,o),
(229,476,cs),
(185,433,l),
(162,414,o),
(152,386,o),
(157,367,c),
(165,342,o),
(186,332,o),
(221,337,cs),
(263,342,o),
(344,352,o),
(485,367,c),
(460,340,o),
(435,314,o),
(409,287,cs),
(382,260,o),
(357,236,o),
(334,214,cs),
(310,192,o),
(289,174,o),
(271,160,c),
(238,131,o),
(210,108,o),
(187,92,cs),
(160,75,o),
(152,55,o),
(156,32,cs),
(160,8,o),
(185,-3,o),
(223,2,cs),
(243,5,o),
(274,10,o),
(316,16,cs),
(358,22,o),
(415,30,o),
(487,41,cs),
(558,51,o),
(648,63,o),
(757,78,c),
(816,-22,l)
);
}
);
width = 1000;
},
{
layerId = m01;
width = 600;
}
);
unicode = 12576;
},
{
glyphname = "b-bopomofo";
lastChange = "2025-07-23 23:21:07 +0000";
layers = (
{
layerId = m001;
shapes = (
{
closed = 1;
nodes = (
(757,74,o),
(772,136,o),
(787,220,cs),
(801,303,o),
(811,395,o),
(818,494,cs),
(820,522,o),
(814,543,o),
(801,556,cs),
(788,569,o),
(769,576,o),
(742,576,cs),
(306,576,ls),
(285,576,o),
(274,590,o),
(283,610,c),
(342,780,l),
(251,803,l),
(212,683,o),
(188,611,o),
(181,588,cs),
(162,530,o),
(187,495,o),
(245,495,cs),
(688,495,ls),
(699,495,o),
(707,492,o),
(712,487,c),
(716,482,o),
(718,474,o),
(717,464,cs),
(708,383,o),
(699,307,o),
(690,238,cs),
(681,169,o),
(670,118,o),
(659,87,cs),
(642,45,o),
(569,44,o),
(474,41,c),
(468,-53,l),
(534,-53,o),
(593,-47,o),
(644,-35,cs),
(695,-24,o),
(728,-1,o),
(741,33,cs)
);
}
);
width = 1000;
},
{
layerId = m01;
width = 600;
}
);
unicode = 12549;
},
{
glyphname = "c-bopomofo";
lastChange = "2025-07-23 23:21:07 +0000";
layers = (
{
layerId = m001;
shapes = (
{
closed = 1;
nodes = (
(596,-30,l),
(623,11,o),
(654,61,o),
(687,120,cs),
(720,179,o),
(745,237,o),
(764,292,cs),
(783,346,o),
(756,380,o),
(698,380,cs),
(392,380,ls),
(369,380,o),
(361,393,o),
(370,414,c),
(393,461,o),
(414,508,o),
(435,559,c),
(852,559,l),
(852,643,l),
(469,643,l),
(476,662,o),
(485,685,o),
(495,712,cs),
(504,739,o),
(511,759,o),
(515,772,c),
(430,800,l),
(417,754,o),
(390,686,o),
(374,643,c),
(123,643,l),
(123,559,l),
(343,559,l),
(322,505,o),
(297,453,o),
(263,389,cs),
(234,334,o),
(255,296,o),
(317,296,cs),
(631,296,ls),
(652,296,o),
(662,283,o),
(654,262,cs),
(640,223,o),
(619,181,o),
(592,135,cs),
(564,89,o),
(540,50,o),
(521,17,c)
);
}
);
width = 1000;
},
{
layerId = m01;
width = 600;
}
);
unicode = 12568;
},
{
glyphname = "ch-bopomofo";
lastChange = "2025-07-23 23:21:07 +0000";
layers = (
{
layerId = m001;
shapes = (
{
closed = 1;
nodes = (
(577,-15,l),
(577,413,l),
(660,475,o),
(749,559,o),
(808,625,c),
(737,676,l),
(694,625,o),
(640,574,o),
(577,522,cs),
(514,469,o),
(450,424,o),
(387,387,cs),
(323,350,o),
(258,317,o),
(193,290,c),
(228,207,l),
(320,249,o),
(408,296,o),
(490,350,c),
(490,-15,l)
);
},
{
closed = 1;
nodes = (
(583,806,l),
(542,765,o),
(485,719,o),
(412,669,cs),
(338,618,o),
(267,578,o),
(200,547,c),
(237,473,l),
(308,506,o),
(383,549,o),
(462,603,cs),
(541,656,o),
(604,707,o),
(653,756,c)
);
}
);
width = 1000;
},
{
layerId = m01;
width = 600;
}
);
unicode = 12564;
},
{
glyphname = "d-bopomofo";
lastChange = "2025-07-23 23:21:07 +0000";
layers = (
{
layerId = m001;
shapes = (
{
closed = 1;
nodes = (
(686,-21,o),
(712,-11,o),
(732,8,cs),
(752,26,o),
(768,55,o),
(779,94,cs),
(790,133,o),
(800,185,o),
(807,250,cs),
(814,314,o),
(822,393,o),
(829,488,cs),
(834,546,o),
(806,576,o),
(754,576,cs),
(313,576,ls),
(292,576,o),
(281,590,o),
(290,610,c),
(354,783,l),
(261,803,l),
(188,586,ls),
(169,532,o),
(193,497,o),
(251,497,cs),
(438,497,l),
(398,272,o),
(289,119,o),
(119,37,c),
(163,-38,l),
(228,-5,o),
(286,38,o),
(338,92,cs),
(389,145,o),
(430,205,o),
(459,270,cs),
(488,335,o),
(511,410,o),
(526,497,c),
(712,497,ls),
(722,497,o),
(729,495,o),
(734,490,cs),
(739,485,o),
(741,476,o),
(740,465,cs),
(733,378,o),
(726,307,o),
(720,253,cs),
(713,199,o),
(706,158,o),
(698,130,cs),
(689,101,o),
(679,82,o),
(666,72,cs),
(653,61,o),
(637,56,o),
(617,56,cs),
(610,56,o),
(589,57,o),
(554,59,c),
(530,-20,l),
(573,-24,o),
(614,-25,o),
(653,-24,c)
);
}
);
width = 1000;
},
{
layerId = m01;
width = 600;
}
);
unicode = 12553;
},
{
glyphname = "e-bopomofo";
lastChange = "2025-07-23 23:21:07 +0000";
layers = (
{
layerId = m001;
shapes = (
{
closed = 1;
nodes = (
(750,187,l),
(673,124,o),
(572,92,o),
(449,92,cs),
(304,92,o),
(220,143,o),
(220,233,cs),
(220,327,o),
(323,373,o),
(493,356,cs),
(515,354,o),
(531,358,o),
(541,368,cs),
(550,377,o),
(554,390,o),
(554,407,cs),
(554,569,l),
(851,569,l),
(851,650,l),
(554,650,l),
(554,779,l),
(464,779,l),
(464,650,l),
(134,650,l),
(134,569,l),
(464,569,l),
(464,427,l),
(398,432,o),
(340,428,o),
(291,413,cs),
(242,398,o),
(203,374,o),
(176,343,cs),
(149,311,o),
(135,272,o),
(135,227,cs),
(135,183,o),
(148,145,o),
(175,112,cs),
(202,79,o),
(239,53,o),
(288,35,cs),
(337,17,o),
(394,8,o),
(460,7,cs),
(611,7,o),
(729,47,o),
(814,126,c)
);
}
);
width = 1000;
},
{
layerId = m01;
width = 600;
}
);
unicode = 12572;
},
{
glyphname = "eh-bopomofo";
lastChange = "2025-07-23 23:21:07 +0000";
layers = (
{
layerId = m001;
shapes = (
{
closed = 1;
nodes = (
(759,77,l),
(426,77,ls),
(362,77,o),
(342,99,o),
(342,167,cs),
(342,457,l),
(610,457,l),
(605,420,o),
(595,379,o),
(580,333,cs),
(565,286,o),
(552,248,o),
(541,219,c),
(623,181,l),
(636,217,o),
(650,262,o),
(666,315,cs),
(681,368,o),
(691,415,o),
(694,457,c),
(871,457,l),
(871,542,l),
(704,542,l),
(708,604,o),
(709,662,o),
(709,714,c),
(625,715,l),
(625,663,o),
(624,604,o),
(619,542,c),
(342,542,l),
(342,714,l),
(255,714,l),
(255,542,l),
(95,542,l),
(95,457,l),
(255,457,l),
(255,166,ls),
(255,123,o),
(261,89,o),
(272,64,cs),
(283,39,o),
(302,21,o),
(328,11,cs),
(353,1,o),
(388,-4,o),
(431,-4,cs),
(759,-4,l)
);
}
);
width = 1000;
},
{
layerId = m01;
width = 600;
}
);
unicode = 12573;
},
{
glyphname = "ei-bopomofo";
lastChange = "2025-07-23 23:21:07 +0000";
layers = (
{
layerId = m001;
shapes = (
{
closed = 1;
nodes = (
(838,98,l),
(780,141,o),
(724,192,o),
(671,251,cs),
(618,310,o),
(573,374,o),
(537,442,cs),
(500,509,o),
(468,586,o),
(441,672,cs),
(422,731,o),
(374,743,o),
(324,711,cs),
(299,694,o),
(264,674,o),
(221,650,cs),
(177,625,o),
(139,606,o),
(108,593,c),
(148,512,l),
(175,525,o),
(206,543,o),
(243,565,cs),
(279,586,o),
(308,604,o),
(331,617,c),
(340,623,o),
(347,625,o),
(354,623,cs),
(361,621,o),
(366,614,o),
(370,602,cs),
(401,511,o),
(437,431,o),
(476,361,cs),
(515,291,o),
(561,226,o),
(615,167,cs),
(669,107,o),
(723,56,o),
(778,15,c)
);
}
);
width = 1000;
},
{
layerId = m01;
width = 600;
}
);
unicode = 12575;
},
{
glyphname = "en-bopomofo";
lastChange = "2025-07-23 23:21:07 +0000";
layers = (
{
layerId = m001;
shapes = (
{
closed = 1;
nodes = (
(697,-25,l),
(720,22,o),
(747,83,o),
(778,159,cs),
(809,234,o),
(832,304,o),
(849,369,cs),
(862,424,o),
(834,455,o),
(779,455,cs),
(294,455,ls),
(271,455,o),
(264,468,o),
(273,489,c),
(291,524,o),
(313,567,o),
(340,616,cs),
(366,665,o),
(386,710,o),
(399,749,c),
(309,770,l),
(288,688,o),
(227,581,o),
(168,470,cs),
(139,415,o),
(159,376,o),
(221,376,cs),
(729,376,ls),
(749,376,o),
(759,363,o),
(754,343,cs),
(741,294,o),
(721,237,o),
(692,172,cs),
(663,107,o),
(640,52,o),
(621,9,c)
);
}
);
width = 1000;
},
{
layerId = m01;
width = 600;
}
);
unicode = 12579;
},
{
glyphname = "eng-bopomofo";
lastChange = "2025-07-23 23:21:07 +0000";
layers = (
{
layerId = m001;
shapes = (
{
closed = 1;
nodes = (
(456,16,o),
(519,18,o),
(596,21,cs),
(673,23,o),
(755,25,o),
(844,28,c),
(843,111,l),
(662,107,o),
(462,102,o),
(280,98,cs),
(256,97,o),
(248,113,o),
(261,133,cs),
(364,288,o),
(468,485,o),
(552,690,c),
(461,720,l),
(440,663,o),
(417,608,o),
(392,554,cs),
(367,499,o),
(342,449,o),
(318,402,cs),
(294,355,o),
(272,314,o),
(253,281,cs),
(233,247,o),
(218,222,o),
(207,207,c),
(182,169,o),
(159,139,o),
(143,116,cs),
(130,99,o),
(124,82,o),
(123,65,cs),
(122,48,o),
(128,35,o),
(140,24,cs),
(151,13,o),
(169,7,o),
(193,8,cs),
(231,8,o),
(291,12,o),
(409,15,cs)
);
}
);
width = 1000;
},
{
layerId = m01;
width = 600;
}
);
unicode = 12581;
},
{
glyphname = "er-bopomofo";
lastChange = "2025-07-23 23:21:07 +0000";
layers = (
{
layerId = m001;
shapes = (
{
closed = 1;
nodes = (
(882,88,l),
(696,88,ls),
(658,88,o),
(646,104,o),
(646,162,cs),
(646,758,l),
(556,758,l),
(556,167,ls),
(556,126,o),
(560,93,o),
(569,69,cs),
(578,45,o),
(592,28,o),
(613,19,cs),
(634,9,o),
(662,4,o),
(698,4,cs),
(882,4,l)
);
},
{
closed = 1;
nodes = (
(390,757,l),
(302,757,l),
(302,490,ls),
(302,453,o),
(300,416,o),
(296,378,cs),
(291,340,o),
(283,303,o),
(270,266,cs),
(257,229,o),
(236,193,o),
(207,160,cs),
(178,126,o),
(142,95,o),
(99,66,c),
(150,-11,l),
(201,22,o),
(243,59,o),
(277,98,cs),
(311,137,o),
(336,178,o),
(351,221,cs),
(366,264,o),
(377,309,o),
(382,354,cs),
(387,399,o),
(390,445,o),
(390,490,cs)
);
}
);
width = 1000;
},
{
layerId = m01;
width = 600;
}
);
unicode = 12582;
},
{
glyphname = "f-bopomofo";
lastChange = "2025-07-23 23:21:07 +0000";
layers = (
{
layerId = m001;
shapes = (
{
closed = 1;
nodes = (
(873,88,l),
(323,88,ls),
(252,89,o),
(216,120,o),
(216,181,cs),
(216,612,ls),
(216,631,o),
(226,641,o),
(245,641,cs),
(858,641,l),
(858,725,l),
(201,725,ls),
(149,725,o),
(123,699,o),
(123,647,cs),
(123,186,ls),
(123,133,o),
(136,92,o),
(162,62,cs),
(196,22,o),
(253,2,o),
(334,2,cs),
(873,2,l)
);
}
);
width = 1000;
},
{
layerId = m01;
width = 600;
}
);
unicode = 12552;
},
{
glyphname = "g-bopomofo";
lastChange = "2025-07-23 23:21:07 +0000";
layers = (
{
layerId = m001;
shapes = (
{
closed = 1;
nodes = (
(455,86,o),
(434,121,o),
(409,159,cs),
(384,196,o),
(357,235,o),
(329,274,cs),
(300,313,o),
(272,350,o),
(243,385,c),
(232,400,o),
(231,414,o),
(241,427,cs),
(262,456,ls),
(321,542,o),
(385,632,o),
(437,722,c),
(453,756,o),
(448,781,o),
(420,792,cs),
(389,803,o),
(366,793,o),
(350,760,c),
(300,673,o),
(230,560,o),
(163,461,cs),
(138,424,o),
(139,387,o),
(166,351,cs),
(253,233,o),
(333,106,o),
(385,7,cs),
(402,-26,o),
(426,-36,o),
(455,-22,c),
(486,-5,o),
(492,24,o),
(473,53,c)
);
},
{
closed = 1;
nodes = (
(745,165,o),
(658,284,o),
(575,383,cs),
(564,396,o),
(564,409,o),
(574,424,cs),
(604,466,ls),
(663,542,o),
(722,624,o),
(770,703,cs),
(789,735,o),
(784,762,o),
(757,774,cs),
(725,789,o),
(701,775,o),
(682,744,cs),
(634,662,o),
(564,555,o),
(494,461,cs),
(467,424,o),
(467,387,o),
(496,350,cs),
(586,239,o),
(667,118,o),
(718,23,cs),
(737,-9,o),
(762,-20,o),
(791,-4,c),
(822,11,o),
(826,38,o),
(807,69,cs)
);
}
);
width = 1000;
},
{
layerId = m01;
width = 600;
}
);
unicode = 12557;
},
{
glyphname = "h-bopomofo";
lastChange = "2025-07-23 23:21:07 +0000";
layers = (
{
layerId = m001;
shapes = (
{
closed = 1;
nodes = (
(180,44,o),
(202,92,o),
(217,145,cs),
(232,198,o),
(242,251,o),
(247,304,cs),
(252,357,o),
(254,406,o),
(254,451,cs),
(254,604,ls),
(254,623,o),
(264,633,o),
(283,633,cs),
(820,633,l),
(820,716,l),
(248,716,ls),
(196,716,o),
(170,690,o),
(170,637,cs),
(170,452,ls),
(170,412,o),
(168,369,o),
(164,323,cs),
(160,276,o),
(152,230,o),
(139,183,cs),
(126,136,o),
(106,92,o),
(79,50,c),
(66,33,o),
(62,-5,o),
(81,-18,cs),
(105,-33,o),
(131,-30,o),
(150,-1,cs)
);
}
);
width = 1000;
},
{
layerId = m01;
width = 600;
}
);
unicode = 12559;
},
{
glyphname = "i-bopomofo";
lastChange = "2025-07-23 23:21:07 +0000";
layers = (
{
layerId = m001;
shapes = (
{
closed = 1;
nodes = (
(866,420,l),
(134,420,l),
(134,333,l),
(866,333,l)
);
}
);
width = 1000;
},
{
layerId = m01;
width = 600;
}
);
unicode = 12583;
},
{
glyphname = "iu-bopomofo";
lastChange = "2025-07-23 23:21:07 +0000";
layers = (
{
layerId = m001;
shapes = (
{
closed = 1;
nodes = (
(817,13,o),
(843,39,o),
(843,92,cs),
(843,707,l),
(755,707,l),
(755,124,ls),
(755,106,o),
(746,97,o),
(729,97,cs),
(270,97,ls),
(250,97,o),
(240,107,o),
(240,126,cs),
(240,703,l),
(152,703,l),
(152,92,ls),
(152,41,o),
(182,12,o),
(236,13,cs),
(765,13,ls)
);
}
);
width = 1000;
},
{
layerId = m01;
width = 600;
}
);
unicode = 12585;
},
{
glyphname = "j-bopomofo";
lastChange = "2025-07-23 23:21:07 +0000";
layers = (
{
layerId = m001;
shapes = (
{
closed = 1;
nodes = (
(734,-56,l),
(734,749,l),
(648,749,l),
(648,334,l),
(503,304,o),
(407,283,o),
(358,272,cs),
(339,268,o),
(326,277,o),
(326,298,cs),
(326,701,l),
(243,701,l),
(243,241,ls),
(243,186,o),
(274,160,o),
(328,173,cs),
(346,178,o),
(368,184,o),
(395,191,cs),
(421,198,o),
(505,218,o),
(648,252,c),
(648,-56,l)
);
}
);
width = 1000;
},
{
layerId = m01;
width = 600;
}
);
unicode = 12560;
},
{
glyphname = "k-bopomofo";
lastChange = "2025-07-23 23:21:07 +0000";
layers = (
{
layerId = m001;
shapes = (
{
closed = 1;
nodes = (
(682,40,o),
(698,70,o),
(712,109,cs),
(725,147,o),
(737,190,o),
(747,238,cs),
(756,286,o),
(763,335,o),
(768,386,cs),
(772,440,o),
(744,468,o),
(692,468,cs),
(386,468,ls),
(361,468,o),
(355,484,o),
(367,504,cs),
(398,554,o),
(430,609,o),
(459,663,c),
(851,663,l),
(851,746,l),
(130,746,l),
(130,663,l),
(359,663,l),
(324,601,o),
(288,545,o),
(253,482,cs),
(224,428,o),
(244,388,o),
(307,388,cs),
(649,388,ls),
(660,388,o),
(667,385,o),
(672,380,cs),
(677,375,o),
(678,367,o),
(676,356,cs),
(651,189,o),
(620,98,o),
(591,70,cs),
(574,53,o),
(553,51,o),
(526,51,cs),
(505,51,o),
(455,52,o),
(405,55,c),
(395,-25,l),
(450,-28,o),
(522,-27,o),
(553,-26,cs),
(600,-23,o),
(636,-19,o),
(665,19,cs)
);
}
);
width = 1000;
},
{
layerId = m01;
width = 600;
}
);
unicode = 12558;
},
{
glyphname = "l-bopomofo";
lastChange = "2025-07-23 23:21:07 +0000";
layers = (
{
layerId = m001;
shapes = (
{
closed = 1;
nodes = (
(701,-20,o),
(723,-7,o),
(746,18,cs),
(760,34,o),
(773,60,o),
(784,96,cs),
(795,131,o),
(805,181,o),
(814,245,cs),
(823,309,o),
(830,391,o),
(836,491,cs),
(840,546,o),
(813,576,o),
(761,576,cs),
(548,576,l),
(553,603,o),
(560,638,o),
(568,680,cs),
(575,721,o),
(581,757,o),
(584,788,c),
(497,798,l),
(494,765,o),
(488,727,o),
(481,684,cs),
(474,640,o),
(467,604,o),
(461,576,c),
(289,576,ls),
(268,576,o),
(259,589,o),
(266,609,cs),
(273,629,o),
(281,658,o),
(290,695,cs),
(299,732,o),
(306,762,o),
(311,784,c),
(227,797,l),
(222,775,o),
(215,743,o),
(204,700,cs),
(193,657,o),
(183,619,o),
(172,587,cs),
(153,531,o),
(178,496,o),
(234,496,cs),
(443,496,l),
(389,287,o),
(267,133,o),
(114,46,c),
(158,-34,l),
(334,73,o),
(473,251,o),
(532,496,c),
(724,496,ls),
(733,496,o),
(740,494,o),
(745,489,cs),
(750,484,o),
(752,475,o),
(751,464,cs),
(732,227,o),
(707,105,o),
(672,73,cs),
(659,62,o),
(642,56,o),
(623,56,cs),
(609,56,o),
(587,57,o),
(558,59,c),
(558,-25,l),
(602,-26,o),
(636,-25,o),
(659,-24,c)
);
}
);
width = 1000;
},
{
layerId = m01;
width = 600;
}
);
unicode = 12556;
},
{
glyphname = "m-bopomofo";
lastChange = "2025-07-23 23:21:07 +0000";
layers = (
{
layerId = m001;
shapes = (
{
closed = 1;
nodes = (
(222,0,l),
(222,622,ls),
(222,641,o),
(232,651,o),
(251,651,cs),
(728,651,ls),
(747,651,o),
(757,641,o),
(757,622,cs),
(757,0,l),
(852,0,l),
(852,658,ls),
(852,710,o),
(826,736,o),
(773,736,cs),
(210,736,ls),
(158,736,o),
(132,710,o),
(132,658,cs),
(132,0,l)
);
}
);
width = 1000;
},
{
layerId = m01;
width = 600;
}
);
unicode = 12551;
},
{
glyphname = "n-bopomofo";
lastChange = "2025-07-23 23:21:07 +0000";
layers = (
{
layerId = m001;
shapes = (
{
closed = 1;
nodes = (
(772,61,o),
(813,172,o),
(852,388,cs),
(861,444,o),
(835,476,o),
(780,476,cs),
(531,476,ls),
(524,476,o),
(520,478,o),
(517,481,cs),
(506,493,o),
(519,528,o),
(556,586,cs),
(603,659,o),
(622,705,o),
(613,724,cs),
(603,743,o),
(582,752,o),
(549,752,cs),
(156,752,l),
(156,669,l),
(459,669,ls),
(483,669,o),
(486,653,o),
(475,633,cs),
(398,491,ls),
(381,460,o),
(377,436,o),
(386,420,cs),
(395,404,o),
(418,396,o),
(453,395,cs),
(731,395,ls),
(751,395,o),
(762,383,o),
(758,362,cs),
(727,198,o),
(691,100,o),
(648,67,cs),
(633,55,o),
(615,54,o),
(592,54,cs),
(572,54,o),
(537,56,o),
(498,57,c),
(493,-25,l),
(548,-28,o),
(591,-27,o),
(616,-26,cs),
(663,-23,o),
(691,-16,o),
(720,11,cs)
);
}
);
width = 1000;
},
{
layerId = m01;
width = 600;
}
);
unicode = 12555;
},
{
glyphname = "o-bopomofo";
lastChange = "2025-07-23 23:21:07 +0000";
layers = (
{
layerId = m001;
shapes = (
{
closed = 1;
nodes = (
(750,188,l),
(676,126,o),
(576,93,o),
(449,93,cs),
(303,93,o),
(220,144,o),
(220,234,cs),
(220,328,o),
(325,384,o),
(495,377,cs),
(516,376,o),
(532,380,o),
(542,391,cs),
(550,399,o),
(554,411,o),
(554,428,cs),
(554,617,l),
(836,617,l),
(836,699,l),
(137,699,l),
(137,617,l),
(464,617,l),
(464,448,l),
(397,449,o),
(339,440,o),
(290,423,cs),
(241,405,o),
(203,379,o),
(176,346,cs),
(149,313,o),
(135,273,o),
(135,227,cs),
(135,182,o),
(148,144,o),
(175,111,cs),
(201,78,o),
(238,53,o),
(287,35,cs),
(336,17,o),
(393,8,o),
(460,7,cs),
(610,7,o),
(728,48,o),
(814,130,c)
);
}
);
width = 1000;
},
{
layerId = m01;
width = 600;
}
);
unicode = 12571;
},
{
glyphname = "ou-bopomofo";
lastChange = "2025-07-23 23:21:07 +0000";
layers = (
{
layerId = m001;
shapes = (
{
closed = 1;
nodes = (
(588,179,o),
(631,135,o),
(678,87,cs),
(724,38,o),
(760,-2,o),
(785,-33,c),
(861,28,l),
(834,61,o),
(795,102,o),
(746,152,cs),
(696,202,o),
(650,246,o),
(609,284,c),
(700,386,o),
(770,501,o),
(819,628,cs),
(842,683,o),
(814,717,o),
(756,717,cs),
(191,717,l),
(191,633,l),
(688,633,ls),
(711,633,o),
(720,620,o),
(711,599,cs),
(671,510,o),
(615,425,o),
(542,342,c),
(443,433,o),
(362,503,o),
(299,552,c),
(242,491,l),
(296,449,o),
(376,379,o),
(481,280,c),
(379,184,o),
(250,89,o),
(129,38,c),
(169,-45,l),
(304,15,o),
(430,103,o),
(547,218,c)
);
}
);
width = 1000;
},
{
layerId = m01;
width = 600;
}
);
unicode = 12577;
},
{
glyphname = "p-bopomofo";
lastChange = "2025-07-23 23:21:07 +0000";
layers = (
{
layerId = m001;
shapes = (
{
closed = 1;
nodes = (
(650,42,o),
(724,-28,o),
(745,-51,c),
(825,4,l),
(815,16,o),
(776,54,o),
(709,117,cs),
(641,180,o),
(602,216,o),
(593,223,c),
(671,305,o),
(729,398,o),
(771,500,cs),
(792,554,o),
(766,590,o),
(707,590,cs),
(339,590,ls),
(318,590,o),
(308,603,o),
(315,624,cs),
(373,776,l),
(282,793,l),
(211,597,ls),
(192,545,o),
(220,508,o),
(276,508,cs),
(635,508,ls),
(658,508,o),
(668,495,o),
(657,474,cs),
(625,406,o),
(585,345,o),
(522,281,c),
(501,299,o),
(425,362,o),
(294,469,c),
(238,407,l),
(263,386,o),
(300,355,o),
(347,314,cs),
(394,273,o),
(430,241,o),
(456,220,c),
(369,144,o),
(253,65,o),
(123,21,c),
(157,-60,l),
(224,-35,o),
(290,-2,o),
(356,38,cs),
(421,78,o),
(477,118,o),
(523,158,c)
);
}
);
width = 1000;
},
{
layerId = m01;
width = 600;
}
);
unicode = 12550;
},
{
glyphname = "q-bopomofo";
lastChange = "2025-07-23 23:21:07 +0000";
layers = (
{
layerId = m001;
shapes = (
{
closed = 1;
nodes = (
(698,43,l),
(368,384,ls),
(354,399,o),
(354,413,o),
(367,426,cs),
(407,467,ls),
(447,508,o),
(529,593,o),
(653,720,c),
(582,780,l),
(557,752,o),
(528,719,o),
(493,682,cs),
(458,645,o),
(424,608,o),
(391,572,cs),
(357,535,o),
(323,499,o),
(289,463,cs),
(253,424,o),
(253,387,o),
(289,351,cs),
(629,-12,l)
);
}
);
width = 1000;
},
{
layerId = m01;
width = 600;
}
);
unicode = 12561;
},
{
glyphname = "r-bopomofo";
lastChange = "2025-07-23 23:21:07 +0000";
layers = (
{
layerId = m001;
shapes = (
{
closed = 1;
nodes = (
(797,6,o),
(823,32,o),
(823,83,cs),
(823,681,ls),
(823,733,o),
(797,759,o),
(745,759,cs),
(234,759,ls),
(182,759,o),
(156,733,o),
(156,681,cs),
(156,82,ls),
(156,31,o),
(185,5,o),
(235,6,cs),
(746,6,ls)
);
},
{
closed = 1;
nodes = (
(245,643,ls),
(245,663,o),
(255,673,o),
(274,673,cs),
(700,673,ls),
(719,673,o),
(729,663,o),
(729,643,cs),
(729,120,ls),
(729,102,o),
(720,93,o),
(703,93,cs),
(274,93,ls),
(255,93,o),
(245,103,o),
(245,122,cs)
);
},
{
closed = 1;
nodes = (
(580,313,l),
(547,373,o),
(495,450,o),
(445,513,c),
(377,468,l),
(421,405,o),
(470,327,o),
(503,269,c)
);
}
);
width = 1000;
},
{
layerId = m01;
width = 600;
}
);
unicode = 12566;
},
{
glyphname = "s-bopomofo";
lastChange = "2025-07-23 23:21:07 +0000";
layers = (
{
layerId = m001;
shapes = (
{
closed = 1;
nodes = (
(872,78,l),
(727,345,l),
(654,294,l),
(707,195,l),
(263,123,ls),
(243,120,o),
(236,132,o),
(247,147,c),
(267,178,o),
(289,216,o),
(312,259,cs),
(335,302,o),
(358,349,o),
(381,400,cs),
(404,450,o),
(427,502,o),
(449,555,cs),
(470,608,o),
(490,659,o),
(507,709,c),
(412,737,l),
(400,700,o),
(386,661,o),
(370,620,cs),
(354,579,o),
(338,537,o),
(321,496,cs),
(304,455,o),
(287,416,o),
(271,379,cs),
(254,342,o),
(239,311,o),
(226,284,cs),
(213,257,o),
(202,237,o),
(195,224,cs),
(135,124,ls),
(97,62,o),
(128,18,o),
(198,29,cs),
(746,117,l),
(764,80,l),
(794,26,l)
);
}
);
width = 1000;
},
{
layerId = m01;
width = 600;
}
);
unicode = 12569;
},
{
glyphname = "sh-bopomofo";
lastChange = "2025-07-23 23:21:07 +0000";
layers = (
{
layerId = m001;
shapes = (
{
closed = 1;
nodes = (
(145,-23,l),
(230,69,o),
(274,195,o),
(279,356,cs),
(279,375,o),
(289,385,o),
(309,385,cs),
(772,385,ls),
(825,385,o),
(851,411,o),
(851,464,cs),
(851,675,ls),
(851,727,o),
(825,753,o),
(772,753,cs),
(190,753,l),
(190,670,l),
(734,670,ls),
(754,670,o),
(764,660,o),
(764,640,cs),
(764,498,ls),
(764,478,o),
(754,468,o),
(734,468,cs),
(268,468,ls),
(215,468,o),
(189,442,o),
(189,390,cs),
(189,375,ls),
(189,345,o),
(187,311,o),
(182,272,cs),
(177,233,o),
(166,194,o),
(151,153,cs),
(136,112,o),
(112,74,o),
(79,37,c)
);
}
);
width = 1000;
},
{
layerId = m01;
width = 600;
}
);
unicode = 12565;
},
{
glyphname = "t-bopomofo";
lastChange = "2025-07-23 23:21:07 +0000";
layers = (
{
layerId = m001;
shapes = (
{
closed = 1;
nodes = (
(851,36,l),
(839,61,o),
(807,107,o),
(755,175,cs),
(703,242,o),
(670,282,o),
(657,293,c),
(601,236,l),
(624,207,o),
(672,160,o),
(685,139,c),
(567,126,o),
(450,113,o),
(331,98,cs),
(308,95,o),
(297,111,o),
(308,132,cs),
(367,243,o),
(423,372,o),
(474,502,c),
(896,502,l),
(896,586,l),
(505,586,l),
(514,609,o),
(538,671,o),
(577,771,c),
(482,796,l),
(441,683,o),
(415,613,o),
(405,586,c),
(90,586,l),
(90,502,l),
(375,502,l),
(315,348,o),
(258,222,o),
(188,103,cs),
(170,72,o),
(166,47,o),
(176,27,cs),
(187,4,o),
(206,-11,o),
(252,-2,cs),
(269,1,o),
(296,6,o),
(332,11,cs),
(368,16,o),
(418,23,o),
(483,32,cs),
(548,41,o),
(631,52,o),
(733,65,c),
(752,35,ls),
(771,2,o),
(782,-15,o),
(787,-22,c)
);
}
);
width = 1000;
},
{
layerId = m01;
width = 600;
}
);
unicode = 12554;
},
{
glyphname = "u-bopomofo";
lastChange = "2025-07-23 23:21:07 +0000";
layers = (
{
layerId = m001;
shapes = (
{
closed = 1;
nodes = (
(628,198,o),
(696,117,o),
(752,41,c),
(838,103,l),
(780,178,o),
(697,271,o),
(594,377,c),
(665,476,o),
(729,583,o),
(785,698,c),
(700,730,l),
(655,634,o),
(598,537,o),
(529,440,c),
(447,519,o),
(361,599,o),
(282,669,c),
(223,606,l),
(310,528,o),
(393,447,o),
(472,365,c),
(380,256,o),
(275,162,o),
(162,91,c),
(220,11,l),
(335,93,o),
(441,190,o),
(533,300,c)
);
}
);
width = 1000;
},
{
layerId = m01;
width = 600;
}
);
unicode = 12584;
},
{
glyphname = "x-bopomofo";
lastChange = "2025-07-23 23:21:07 +0000";
layers = (
{
layerId = m001;
shapes = (
{
closed = 1;
nodes = (
(536,22,l),
(536,646,l),
(844,646,l),
(844,730,l),
(136,730,l),
(136,646,l),
(441,646,l),
(441,22,l)
);
}
);
width = 1000;
},
{
layerId = m01;
width = 600;
}
);
unicode = 12562;
},
{
glyphname = "z-bopomofo";
lastChange = "2025-07-23 23:21:07 +0000";
layers = (
{
layerId = m001;
shapes = (
{
closed = 1;
nodes = (
(475,-15,l),
(475,649,l),
(742,649,ls),
(761,649,o),
(771,638,o),
(771,617,c),
(767,548,o),
(763,493,o),
(759,450,cs),
(755,407,o),
(751,374,o),
(746,352,cs),
(741,329,o),
(735,315,o),
(729,308,cs),
(716,292,o),
(703,288,o),
(682,288,cs),
(653,288,ls),
(644,288,o),
(635,288,o),
(624,289,c),
(614,207,l),
(648,206,o),
(703,206,o),
(723,209,cs),
(759,213,o),
(779,223,o),
(799,247,cs),
(810,260,o),
(820,281,o),
(827,308,cs),
(834,335,o),
(840,366,o),
(845,403,cs),
(850,440,o),
(853,479,o),
(856,522,cs),
(859,564,o),
(861,606,o),
(863,649,cs),
(866,703,o),
(837,730,o),
(786,730,cs),
(162,730,l),
(162,649,l),
(385,649,l),
(385,-15,l)
);
}
);
width = 1000;
},
{
layerId = m01;
width = 600;
}
);
unicode = 12567;
},
{
glyphname = "zh-bopomofo";
lastChange = "2025-07-23 23:21:07 +0000";
layers = (
{
layerId = m001;
shapes = (
{
closed = 1;
nodes = (
(864,83,l),
(529,83,l),
(529,249,l),
(752,249,ls),
(804,249,o),
(830,275,o),
(830,327,cs),
(830,658,l),
(740,658,l),
(740,359,ls),
(740,340,o),
(730,330,o),
(711,330,cs),
(529,330,l),
(529,762,l),
(444,762,l),
(444,330,l),
(274,330,ls),
(255,330,o),
(245,340,o),
(245,359,cs),
(245,658,l),
(159,658,l),
(159,327,ls),
(159,275,o),
(185,249,o),
(237,249,cs),
(444,249,l),
(444,83,l),
(113,83,l),
(113,0,l),
(864,0,l)
);
}
);
width = 1000;
},
{
layerId = m01;
width = 600;
}
);
unicode = 12563;
},
{
glyphname = period.alt;
lastChange = "2025-07-23 23:21:07 +0000";
layers = (
{
layerId = m001;
shapes = (
{
closed = 1;
nodes = (
(75,33,o),
(67,52,o),
(67,75,cs),
(67,98,o),
(75,117,o),
(91,133,cs),
(106,149,o),
(125,157,o),
(148,157,cs),
(171,157,o),
(190,149,o),
(206,133,cs),
(222,117,o),
(230,98,o),
(230,75,cs),
(230,52,o),
(222,33,o),
(206,18,cs),
(190,2,o),
(171,-6,o),
(148,-6,cs),
(125,-6,o),
(106,2,o),
(91,18,c)
);
}
);
width = 296;
},
{
layerId = m01;
width = 600;
}
);
},
{
glyphname = comma.alt;
lastChange = "2025-07-23 23:21:07 +0000";
layers = (
{
layerId = m001;
shapes = (
{
closed = 1;
nodes = (
(345,81,l),
(241,105,l),
(184,-130,l),
(288,-155,l)
);
},
{
closed = 1;
nodes = (
(82,-116,l),
(176,96,l),
(53,96,l),
(19,-116,l)
);
}
);
width = 186;
},
{
layerId = m01;
width = 600;
}
);
},
{
glyphname = plusminus;
lastChange = "2025-07-23 23:21:07 +0000";
layers = (
{
layerId = m001;
shapes = (
{
closed = 1;
nodes = (
(294,274,l),
(470,274,l),
(470,369,l),
(294,369,l),
(294,532,l),
(197,532,l),
(197,369,l),
(20,369,l),
(20,274,l),
(197,274,l),
(197,142,l),
(294,142,l)
);
},
{
closed = 1;
nodes = (
(20,95,l),
(20,0,l),
(470,0,l),
(470,95,l)
);
}
);
width = 490;
},
{
layerId = m01;
width = 600;
}
);
unicode = 177;
},
{
glyphname = y.ss01;
lastChange = "2025-07-23 23:21:07 +0000";
layers = (
{
layerId = m001;
shapes = (
{
closed = 1;
nodes = (
(442,416,l),
(293,141,l),
(139,416,l),
(22,416,l),
(234,36,l),
(63,-266,l),
(179,-266,l),
(557,416,l)
);
}
);
width = 579;
},
{
layerId = m01;
width = 600;
}
);
},
{
glyphname = ampersand.ss01;
lastChange = "2025-07-23 23:21:07 +0000";
layers = (
{
layerId = m001;
shapes = (
{
closed = 1;
nodes = (
(921,155,l),
(927,165,o),
(934,174,o),
(940,184,cs),
(1028,323,l),
(943,376,l),
(847,226,l),
(717,351,l),
(786,402,o),
(850,458,o),
(850,536,cs),
(850,634,o),
(772,700,o),
(657,700,cs),
(541,700,o),
(464,628,o),
(464,533,cs),
(464,463,o),
(494,418,o),
(558,355,c),
(492,304,o),
(434,244,o),
(434,160,cs),
(434,43,o),
(514,-25,o),
(645,-25,cs),
(740,-25,o),
(806,16,o),
(856,71,c),
(943,-12,l),
(1094,-12,l)
);
},
{
closed = 1;
nodes = (
(577,573,o),
(606,601,o),
(657,601,cs),
(708,601,o),
(738,576,o),
(738,531,cs),
(738,491,o),
(698,456,o),
(646,419,c),
(591,472,o),
(577,492,o),
(577,526,cs)
);
},
{
closed = 1;
nodes = (
(589,74,o),
(547,110,o),
(547,163,cs),
(547,211,o),
(583,249,o),
(630,287,c),
(784,140,l),
(745,96,o),
(707,74,o),
(651,74,cs)
);
}
);
width = 1454;
},
{
layerId = m01;
width = 600;
}
);
},
{
glyphname = x.ss01;
lastChange = "2025-07-23 23:21:07 +0000";
layers = (
{
layerId = m001;
shapes = (
{
closed = 1;
nodes = (
(66,0,ls),
(132,0,o),
(192,34,o),
(226,78,c),
(256,36,o),
(314,0,o),
(386,0,cs),
(426,0,l),
(426,100,l),
(386,100,ls),
(322,100,o),
(282,144,o),
(282,208,cs),
(282,270,o),
(322,318,o),
(390,318,cs),
(426,318,l),
(426,416,l),
(390,416,ls),
(324,416,o),
(262,380,o),
(230,338,c),
(200,380,o),
(142,416,o),
(70,416,cs),
(30,416,l),
(30,318,l),
(70,318,ls),
(134,318,o),
(174,274,o),
(174,208,cs),
(174,146,o),
(134,100,o),
(66,100,cs),
(30,100,l),
(30,0,l)
);
}
);
width = 456;
},
{
layerId = m01;
width = 600;
}
);
},
{
glyphname = s.ss01;
lastChange = "2025-07-23 23:21:07 +0000";
layers = (
{
layerId = m001;
shapes = (
{
closed = 1;
nodes = (
(92,-6,ls),
(180,-6,o),
(244,58,o),
(248,148,cs),
(248,264,l),
(250,294,o),
(270,312,o),
(300,312,cs),
(362,312,l),
(362,416,l),
(292,416,ls),
(204,416,o),
(138,354,o),
(136,264,cs),
(136,148,l),
(134,118,o),
(112,100,o),
(84,100,cs),
(0,100,l),
(0,-6,l)
);
}
);
width = 374;
},
{
layerId = m01;
width = 600;
}
);
},
{
glyphname = germandbls;
lastChange = "2025-07-23 23:21:07 +0000";
layers = (
{
layerId = m001;
shapes = (
{
closed = 1;
nodes = (
(192,0,l),
(192,478,ls),
(192,542,o),
(232,580,o),
(291,580,cs),
(347,580,o),
(388,538,o),
(388,479,cs),
(388,423,o),
(349,381,o),
(292,381,cs),
(243,381,l),
(243,285,l),
(292,285,ls),
(353,285,o),
(399,253,o),
(399,194,cs),
(399,132,o),
(353,95,o),
(292,95,cs),
(243,95,l),
(243,0,l),
(292,0,ls),
(415,0,o),
(505,82,o),
(505,192,cs),
(505,254,o),
(474,306,o),
(428,339,c),
(468,373,o),
(492,423,o),
(492,478,cs),
(492,595,o),
(408,675,o),
(291,675,cs),
(172,675,o),
(89,593,o),
(89,478,cs),
(89,0,l)
);
}
);
width = 568;
},
{
layerId = m01;
width = 600;
}
);
unicode = 223;
},
{
glyphname = b.ss01;
lastChange = "2025-07-23 23:10:12 +0000";
layers = (
{
layerId = m001;
shapes = (
{
closed = 1;
nodes = (
(408,-10,o),
(512,88,o),
(512,208,cs),
(512,338,o),
(424,426,o),
(298,426,cs),
(246,426,o),
(200,408,o),
(176,380,c),
(176,728,l),
(64,728,l),
(64,208,ls),
(64,78,o),
(158,-10,o),
(288,-10,cs)
);
},
{
closed = 1;
nodes = (
(224,94,o),
(176,144,o),
(176,208,cs),
(176,274,o),
(224,322,o),
(288,322,cs),
(354,322,o),
(400,274,o),
(400,208,cs),
(400,144,o),
(354,94,o),
(288,94,cs)
);
}
);
width = 556;
},
{
layerId = m01;
shapes = (
{
closed = 1;
nodes = (
(408,-10,o),
(512,88,o),
(512,208,cs),
(512,338,o),
(424,426,o),
(298,426,cs),
(253,426,o),
(228,417,o),
(206,400,c),
(206,650,l),
(64,650,l),
(64,218,ls),
(64,88,o),
(158,-10,o),
(288,-10,cs)
);
},
{
closed = 1;
nodes = (
(244,136,o),
(211,171,o),
(211,213,cs),
(211,258,o),
(244,289,o),
(285,289,cs),
(333,289,o),
(362,254,o),
(362,213,cs),
(362,171,o),
(331,136,o),
(285,136,cs)
);
},
{
closed = 0;
nodes = (
(166,55,l)
);
}
);
width = 556;
}
);
},
{
glyphname = d.ss01;
lastChange = "2025-07-23 23:10:12 +0000";
layers = (
{
layerId = m001;
shapes = (
{
closed = 1;
nodes = (
(388,-10,o),
(492,88,o),
(492,208,cs),
(492,728,l),
(380,728,l),
(380,390,l),
(344,416,o),
(304,426,o),
(262,426,cs),
(144,426,o),
(44,328,o),
(44,208,cs),
(44,78,o),
(138,-10,o),
(268,-10,cs)
);
},
{
closed = 1;
nodes = (
(204,94,o),
(156,144,o),
(156,208,cs),
(156,274,o),
(204,322,o),
(268,322,cs),
(334,322,o),
(380,274,o),
(380,208,cs),
(380,144,o),
(334,94,o),
(268,94,cs)
);
}
);
width = 548;
},
{
layerId = m01;
shapes = (
{
closed = 1;
nodes = (
(398,-10,o),
(492,78,o),
(492,208,cs),
(492,650,l),
(350,650,l),
(350,400,l),
(328,417,o),
(303,426,o),
(258,426,cs),
(132,426,o),
(44,338,o),
(44,208,cs),
(44,88,o),
(148,-10,o),
(268,-10,cs)
);
},
{
closed = 1;
nodes = (
(225,136,o),
(194,171,o),
(194,213,cs),
(194,254,o),
(223,289,o),
(271,289,cs),
(312,289,o),
(345,258,o),
(345,213,cs),
(345,171,o),
(312,136,o),
(271,136,cs)
);
}
);
width = 556;
}
);
},
{
glyphname = i.ss06;
lastChange = "2025-07-23 23:21:07 +0000";
layers = (
{
layerId = m001;
shapes = (
{
closed = 1;
nodes = (
(158,606,o),
(188,636,o),
(188,672,cs),
(188,710,o),
(158,738,o),
(120,738,cs),
(84,738,o),
(54,710,o),
(54,672,cs),
(54,636,o),
(84,606,o),
(120,606,cs)
);
},
{
closed = 1;
nodes = (
(238,0,l),
(238,104,l),
(228,104,ls),
(196,104,o),
(176,126,o),
(176,156,cs),
(176,416,l),
(64,416,l),
(64,156,ls),
(64,66,o),
(128,0,o),
(220,0,cs)
);
}
);
width = 240;
},
{
layerId = m01;
width = 600;
}
);
},
{
glyphname = f.ss01;
lastChange = "2025-07-23 23:21:07 +0000";
layers = (
{
layerId = m001;
shapes = (
{
closed = 1;
nodes = (
(82,0,ls),
(174,0,o),
(238,66,o),
(238,156,cs),
(238,312,l),
(296,312,l),
(296,416,l),
(238,416,l),
(238,572,ls),
(238,604,o),
(260,624,o),
(290,624,cs),
(302,624,l),
(302,728,l),
(282,728,ls),
(192,728,o),
(126,664,o),
(126,572,cs),
(126,416,l),
(72,416,l),
(72,312,l),
(126,312,l),
(126,156,ls),
(126,126,o),
(106,104,o),
(74,104,cs),
(64,104,l),
(64,0,l)
);
}
);
width = 336;
},
{
layerId = m01;
width = 600;
}
);
},
{
glyphname = p.ss01;
lastChange = "2025-07-23 23:10:12 +0000";
layers = (
{
layerId = m001;
shapes = (
{
closed = 1;
nodes = (
(176,-208,l),
(176,26,l),
(212,0,o),
(252,-10,o),
(294,-10,cs),
(412,-10,o),
(512,88,o),
(512,208,cs),
(512,338,o),
(418,426,o),
(288,426,cs),
(168,426,o),
(64,328,o),
(64,208,cs),
(64,-208,l)
);
},
{
closed = 1;
nodes = (
(224,94,o),
(176,144,o),
(176,208,cs),
(176,274,o),
(224,322,o),
(288,322,cs),
(354,322,o),
(400,274,o),
(400,208,cs),
(400,144,o),
(354,94,o),
(288,94,cs)
);
}
);
width = 556;
},
{
layerId = m01;
shapes = (
{
closed = 1;
nodes = (
(158,426,o),
(64,338,o),
(64,208,cs),
(64,-225,l),
(206,-225,l),
(206,16,l),
(228,-1,o),
(253,-10,o),
(298,-10,cs),
(424,-10,o),
(512,78,o),
(512,208,cs),
(512,328,o),
(408,426,o),
(288,426,cs)
);
},
{
closed = 1;
nodes = (
(331,280,o),
(362,245,o),
(362,203,cs),
(362,162,o),
(333,127,o),
(285,127,cs),
(244,127,o),
(211,158,o),
(211,203,cs),
(211,245,o),
(244,280,o),
(285,280,cs)
);
}
);
width = 556;
}
);
},
{
glyphname = q.ss01;
lastChange = "2025-07-23 23:10:12 +0000";
layers = (
{
layerId = m001;
shapes = (
{
closed = 1;
nodes = (
(492,-208,l),
(492,208,ls),
(492,338,o),
(398,426,o),
(268,426,cs),
(148,426,o),
(44,328,o),
(44,208,cs),
(44,78,o),
(132,-10,o),
(258,-10,cs),
(310,-10,o),
(356,8,o),
(380,36,c),
(380,-208,l)
);
},
{
closed = 1;
nodes = (
(204,94,o),
(156,144,o),
(156,208,cs),
(156,274,o),
(204,322,o),
(268,322,cs),
(334,322,o),
(380,274,o),
(380,208,cs),
(380,144,o),
(334,94,o),
(268,94,cs)
);
}
);
width = 548;
},
{
layerId = m01;
shapes = (
{
closed = 1;
nodes = (
(148,426,o),
(44,328,o),
(44,208,cs),
(44,78,o),
(132,-10,o),
(258,-10,cs),
(303,-10,o),
(328,-1,o),
(350,16,c),
(350,-225,l),
(492,-225,l),
(492,208,ls),
(492,338,o),
(398,426,o),
(268,426,cs)
);
},
{
closed = 1;
nodes = (
(312,280,o),
(345,245,o),
(345,203,cs),
(345,158,o),
(312,127,o),
(271,127,cs),
(223,127,o),
(194,162,o),
(194,203,cs),
(194,245,o),
(225,280,o),
(271,280,cs)
);
}
);
width = 556;
}
);
},
{
glyphname = acute;
lastChange = "2025-07-23 23:21:07 +0000";
layers = (
{
layerId = m001;
shapes = (
{
closed = 1;
nodes = (
(219,975,l),
(121,1014,l),
(40,819,l),
(139,780,l)
);
}
);
width = 258;
},
{
layerId = m01;
width = 600;
}
);
unicode = 180;
},
{
glyphname = cedilla;
lastChange = "2025-07-23 23:21:07 +0000";
layers = (
{
layerId = m001;
shapes = (
{
closed = 1;
nodes = (
(201,-51,l),
(97,-26,l),
(40,-261,l),
(144,-286,l)
);
}
);
width = 240;
},
{
layerId = m01;
width = 600;
}
);
unicode = 184;
},
{
glyphname = dieresis;
lastChange = "2025-07-23 23:21:07 +0000";
layers = (
{
layerId = m001;
shapes = (
{
closed = 1;
nodes = (
(147,630,o),
(178,661,o),
(178,699,cs),
(178,737,o),
(147,768,o),
(109,768,cs),
(71,768,o),
(40,737,o),
(40,699,cs),
(40,660,o),
(71,630,o),
(109,630,cs)
);
},
{
closed = 1;
nodes = (
(389,630,o),
(420,661,o),
(420,699,cs),
(420,737,o),
(389,768,o),
(351,768,cs),
(313,768,o),
(282,737,o),
(282,699,cs),
(282,661,o),
(313,630,o),
(351,630,cs)
);
}
);
width = 460;
},
{
layerId = m01;
width = 600;
}
);
unicode = 168;
},
{
glyphname = grave;
lastChange = "2025-07-23 23:21:07 +0000";
layers = (
{
layerId = m001;
shapes = (
{
closed = 1;
nodes = (
(219,819,l),
(139,1014,l),
(40,975,l),
(121,780,l)
);
}
);
width = 258;
},
{
layerId = m01;
width = 600;
}
);
unicode = 96;
},
{
glyphname = macron;
lastChange = "2025-07-23 23:21:07 +0000";
layers = (
{
layerId = m001;
shapes = (
{
closed = 1;
nodes = (
(484,846,l),
(484,950,l),
(64,950,l),
(64,846,l)
);
}
);
width = 548;
},
{
layerId = m01;
width = 600;
}
);
unicode = 175;
},
{
glyphname = tilde;
lastChange = "2025-07-23 23:21:07 +0000";
layers = (
{
layerId = m001;
shapes = (
{
closed = 1;
nodes = (
(421,772,o),
(472,806,o),
(499,861,cs),
(500,863,l),
(416,913,l),
(412,907,l),
(396,887,o),
(379,876,o),
(360,876,cs),
(336,876,o),
(310,892,o),
(290,902,cs),
(284,905,ls),
(248,923,o),
(223,936,o),
(183,936,cs),
(119,936,o),
(69,902,o),
(41,848,c),
(40,845,l),
(125,796,l),
(128,801,l),
(144,822,o),
(161,832,o),
(180,832,cs),
(204,832,o),
(230,816,o),
(251,806,c),
(256,803,l),
(291,785,o),
(318,772,o),
(357,772,cs)
);
}
